<svg viewBox="0 0 320 568" fill="none" xmlns="http://www.w3.org/2000/svg">
<g style="mix-blend-mode:luminosity" opacity="0.2">
<path d="M-53.0716 9.34244C-53.0716 9.34244 -25.9861 18.1568 -17.6077 21.0908C-9.22939 24.0248 8.04253 33.5021 8.04253 33.5021C8.04253 33.5021 29.0559 47.1288 39.0289 47.939C49.002 48.7615 65.3416 47.9267 74.9835 50.4311C84.613 52.9477 102.523 58.8771 102.523 58.8771L144.267 70.9324L205.774 88.6103C205.774 88.6103 265.6 98.2226 271.893 97.8052C278.174 97.3878 284.884 94.908 292.845 95.3008C300.806 95.7059 327.659 97.6579 334.553 100.457C341.447 103.256 365.748 115.827 372.446 116.244C379.143 116.662 409.602 111.628 409.602 111.628C409.602 111.628 424.396 109.529 429.843 111.628C435.289 113.727 472.078 116.269 472.078 116.269" stroke="#A0A09C" stroke-miterlimit="10" stroke-linecap="round" stroke-linejoin="round"/>
<path d="M-25.2134 -7.31671L-22.6005 19.3841C-22.6005 19.3841 -4.08965 3.08128 24.2961 0.564647C52.6819 -1.95199 66.286 0.871551 80.1477 -2.88498" stroke="#A0A09C" stroke-miterlimit="10" stroke-linecap="round" stroke-linejoin="round"/>
<path d="M16.8264 15.9839L5.6512 10.0176" stroke="#A0A09C" stroke-miterlimit="10" stroke-linecap="round" stroke-linejoin="round"/>
<path d="M9.36713 3.2533L1.58986 17.371" stroke="#A0A09C" stroke-miterlimit="10" stroke-linecap="round" stroke-linejoin="round"/>
<path d="M56.2762 -31.7956L-12.9832 95.8898" stroke="#A0A09C" stroke-miterlimit="10" stroke-linecap="round" stroke-linejoin="round"/>
<path d="M81.9639 -31.7956L3.18529 109.627L-48.0662 165.214" stroke="#A0A09C" stroke-miterlimit="10" stroke-linecap="round" stroke-linejoin="round"/>
<path d="M66.4218 -3.8913L50.6832 -0.638087L-4.43234 103.145" stroke="#A0A09C" stroke-miterlimit="10" stroke-linecap="round" stroke-linejoin="round"/>
<path d="M24.0883 27.536L33.3253 32.0536" stroke="#A0A09C" stroke-miterlimit="10" stroke-linecap="round" stroke-linejoin="round"/>
<path d="M104.449 -30.3593L73.2665 50.0379" stroke="#A0A09C" stroke-miterlimit="10" stroke-linecap="round" stroke-linejoin="round"/>
<path d="M59.8091 48.6513L59.2693 39.5791L61.7227 32.999" stroke="#A0A09C" stroke-miterlimit="10" stroke-linecap="round" stroke-linejoin="round"/>
<path d="M89.7658 7.48892L111.196 17.3713L141.864 33.8829" stroke="#A0A09C" stroke-miterlimit="10" stroke-linecap="round" stroke-linejoin="round"/>
<path d="M76.7496 41.0519L104.142 50.9711" stroke="#A0A09C" stroke-miterlimit="10" stroke-linecap="round" stroke-linejoin="round"/>
<path d="M108.791 16.6959L89.3238 46.0116" stroke="#A0A09C" stroke-miterlimit="10" stroke-linecap="round" stroke-linejoin="round"/>
<path d="M86.907 14.8666L103.823 24.1843" stroke="#A0A09C" stroke-miterlimit="10" stroke-linecap="round" stroke-linejoin="round"/>
<path d="M106.914 37.5655L99.0634 36.878" stroke="#A0A09C" stroke-miterlimit="10" stroke-linecap="round" stroke-linejoin="round"/>
<path d="M135.521 1.49789L124.432 24.4913" stroke="#A0A09C" stroke-miterlimit="10" stroke-linecap="round" stroke-linejoin="round"/>
<path d="M133.485 -30.3593L205.063 90.5619L287.117 24.0614" stroke="#A0A09C" stroke-miterlimit="10" stroke-linecap="round" stroke-linejoin="round"/>
<path d="M165.625 38.5229L149.224 33.8825" stroke="#A0A09C" stroke-miterlimit="10" stroke-linecap="round" stroke-linejoin="round"/>
<path d="M177.413 34.6194L231.216 47.9392L241.643 48.6512L344.305 70.9326L409.222 90.5623L472.054 108.977" stroke="#A0A09C" stroke-miterlimit="10" stroke-linecap="round" stroke-linejoin="round"/>
<path d="M201.125 26.6398L197.433 39.579" stroke="#A0A09C" stroke-miterlimit="10" stroke-linecap="round" stroke-linejoin="round"/>
<path d="M213.797 22.3061L207.688 42.1077" stroke="#A0A09C" stroke-miterlimit="10" stroke-linecap="round" stroke-linejoin="round"/>
<path d="M225.303 46.478L246.022 57.723L277.414 66.0095L297.863 69.0786L339.141 85.2341L368.987 151.182L381.683 187.544L373.17 257.482" stroke="#A0A09C" stroke-miterlimit="10" stroke-linecap="round" stroke-linejoin="round"/>
<path d="M280.481 50.0381L261.491 45.3117L251.457 25.4978L259.111 4.4686" stroke="#A0A09C" stroke-miterlimit="10" stroke-linecap="round" stroke-linejoin="round"/>
<path d="M309.111 -31.7956L285.191 28.9719L270.875 97.8171L319.33 128.41" stroke="#A0A09C" stroke-miterlimit="10" stroke-linecap="round" stroke-linejoin="round"/>
<path d="M249.248 -31.7956L287.116 24.0614L303.493 42.1075L331.596 68.17" stroke="#A0A09C" stroke-miterlimit="10" stroke-linecap="round" stroke-linejoin="round"/>
<path d="M372.176 -31.7956L362.264 0.564601L270.875 97.8171L226.457 117.005L152.021 102.089L95.1509 94.613" stroke="#A0A09C" stroke-miterlimit="10" stroke-linecap="round" stroke-linejoin="round"/>
<path d="M96.3041 89.0028L84.4664 80.4585L64.3486 71.0672L69.0469 59.4907" stroke="#A0A09C" stroke-miterlimit="10" stroke-linecap="round" stroke-linejoin="round"/>
<path d="M132.516 67.5441L119.525 101.513" stroke="#A0A09C" stroke-miterlimit="10" stroke-linecap="round" stroke-linejoin="round"/>
<path d="M140.98 69.9874L124.432 108.977" stroke="#A0A09C" stroke-miterlimit="10" stroke-linecap="round" stroke-linejoin="round"/>
<path d="M94.8809 95.8898L127.413 121.461L186.11 82.9629L188.637 62.8053" stroke="#A0A09C" stroke-miterlimit="10" stroke-linecap="round" stroke-linejoin="round"/>
<path d="M163.797 149.366L180.002 118.613L184.332 108.571L186.11 82.9632" stroke="#A0A09C" stroke-miterlimit="10" stroke-linecap="round" stroke-linejoin="round"/>
<path d="M186.111 139.753L180.002 118.613" stroke="#A0A09C" stroke-miterlimit="10" stroke-linecap="round" stroke-linejoin="round"/>
<path d="M179.486 154.19L168.029 141.337" stroke="#A0A09C" stroke-miterlimit="10" stroke-linecap="round" stroke-linejoin="round"/>
<path d="M151.297 42.7213L165.624 47.4231L160.031 66.6355L187.472 72.123" stroke="#A0A09C" stroke-miterlimit="10" stroke-linecap="round" stroke-linejoin="round"/>
<path d="M163.797 76.5551L165.625 67.7531" stroke="#A0A09C" stroke-miterlimit="10" stroke-linecap="round" stroke-linejoin="round"/>
<path d="M161.319 46.0117L154.352 69.9873L164.717 71.7919" stroke="#A0A09C" stroke-miterlimit="10" stroke-linecap="round" stroke-linejoin="round"/>
<path d="M241.226 61.2588L227.683 92.0477" stroke="#A0A09C" stroke-miterlimit="10" stroke-linecap="round" stroke-linejoin="round"/>
<path d="M230.455 69.9874L221.402 91.078" stroke="#A0A09C" stroke-miterlimit="10" stroke-linecap="round" stroke-linejoin="round"/>
<path d="M238.294 93.6434L226.456 117.005L277.732 128.41L328.616 145.142L322.004 160.5L322.875 169.486L311.037 184.181L312.362 203.7L307.541 206.769L295.102 203.7" stroke="#A0A09C" stroke-miterlimit="10" stroke-linecap="round" stroke-linejoin="round"/>
<path d="M304.903 158.524L328.616 145.143L338.65 174.753L337.558 187.545L328.616 207.641L310.865 209.397L307.97 214.221L295.102 208.955V194.923L292.821 187.545L272.261 183.064L273.132 153.036L277.732 128.41" stroke="#A0A09C" stroke-miterlimit="10" stroke-linecap="round" stroke-linejoin="round"/>
<path d="M256.253 130.141L251.457 145.142L273.133 153.036L294.171 154.19L306.879 159.616L322.004 160.5" stroke="#A0A09C" stroke-miterlimit="10" stroke-linecap="round" stroke-linejoin="round"/>
<path d="M310.866 139.311L304.904 151.072L274.789 144.21" stroke="#A0A09C" stroke-miterlimit="10" stroke-linecap="round" stroke-linejoin="round"/>
<path d="M285.522 130.976L286.724 146.923" stroke="#A0A09C" stroke-miterlimit="10" stroke-linecap="round" stroke-linejoin="round"/>
<path d="M300.893 136.034L297.434 149.366" stroke="#A0A09C" stroke-miterlimit="10" stroke-linecap="round" stroke-linejoin="round"/>
<path d="M275.439 140.723L255.493 132.535" stroke="#A0A09C" stroke-miterlimit="10" stroke-linecap="round" stroke-linejoin="round"/>
<path d="M264.152 149.365L265.968 136.831" stroke="#A0A09C" stroke-miterlimit="10" stroke-linecap="round" stroke-linejoin="round"/>
<path d="M297.433 171.315L272.764 165.754L250.12 154.19L239.386 178.472L253.407 188.785" stroke="#A0A09C" stroke-miterlimit="10" stroke-linecap="round" stroke-linejoin="round"/>
<path d="M251.457 181.763L268.41 184.181L261.957 192.86L268.41 201.503" stroke="#A0A09C" stroke-miterlimit="10" stroke-linecap="round" stroke-linejoin="round"/>
<path d="M274.789 199.968L282.333 202.816L288.687 194.702L272.262 183.064L268.41 184.181" stroke="#A0A09C" stroke-miterlimit="10" stroke-linecap="round" stroke-linejoin="round"/>
<path d="M248.156 146.923L244.427 130.976L235.914 131.872L233.657 136.623L215.06 145.192L213.527 156.768L220.764 163.569L237.202 168.001" stroke="#A0A09C" stroke-miterlimit="10" stroke-linecap="round" stroke-linejoin="round"/>
<path d="M245.299 152.607L235.227 150.201L226.457 151.404L214.398 150.201" stroke="#A0A09C" stroke-miterlimit="10" stroke-linecap="round" stroke-linejoin="round"/>
<path d="M213.87 154.19L202.572 158.524L198.414 171.487L190.084 185.274L191.176 196.899L204.768 210.28" stroke="#A0A09C" stroke-miterlimit="10" stroke-linecap="round" stroke-linejoin="round"/>
<path d="M183.068 174.2L191.422 183.064L213.527 191.633L225.304 202.816L283.216 228.695L288.687 231.113L300.893 262.246L301.8 283.398L317.134 328.317" stroke="#A0A09C" stroke-miterlimit="10" stroke-linecap="round" stroke-linejoin="round"/>
<path d="M173.757 194.137L222.518 219.708L245.298 233.298L272.261 255.666V291.93L282.025 318.594" stroke="#A0A09C" stroke-miterlimit="10" stroke-linecap="round" stroke-linejoin="round"/>
<path d="M173.757 211.815L209.491 233.74" stroke="#A0A09C" stroke-miterlimit="10" stroke-linecap="round" stroke-linejoin="round"/>
<path d="M190.305 202.816L177.597 224.533L188.637 232.206" stroke="#A0A09C" stroke-miterlimit="10" stroke-linecap="round" stroke-linejoin="round"/>
<path d="M204.768 210.28L173.757 255.297L190.501 245.525" stroke="#A0A09C" stroke-miterlimit="10" stroke-linecap="round" stroke-linejoin="round"/>
<path d="M198.194 265.978L186.969 236.122" stroke="#A0A09C" stroke-miterlimit="10" stroke-linecap="round" stroke-linejoin="round"/>
<path d="M198.193 219.819L241.14 246.016L239.386 251.946L258.89 259.766" stroke="#A0A09C" stroke-miterlimit="10" stroke-linecap="round" stroke-linejoin="round"/>
<path d="M264.153 248.938L246.083 285.129" stroke="#A0A09C" stroke-miterlimit="10" stroke-linecap="round" stroke-linejoin="round"/>
<path d="M237.754 228.793L223.009 276.351" stroke="#A0A09C" stroke-miterlimit="10" stroke-linecap="round" stroke-linejoin="round"/>
<path d="M218.348 255.297L211.38 271.576" stroke="#A0A09C" stroke-miterlimit="10" stroke-linecap="round" stroke-linejoin="round"/>
<path d="M231.793 248.017L219.232 243.033" stroke="#A0A09C" stroke-miterlimit="10" stroke-linecap="round" stroke-linejoin="round"/>
<path d="M239.386 259.766L231.793 280.562" stroke="#A0A09C" stroke-miterlimit="10" stroke-linecap="round" stroke-linejoin="round"/>
<path d="M247.764 255.297L237.754 281.544" stroke="#A0A09C" stroke-miterlimit="10" stroke-linecap="round" stroke-linejoin="round"/>
<path d="M209.491 252.572L203.922 268.421" stroke="#A0A09C" stroke-miterlimit="10" stroke-linecap="round" stroke-linejoin="round"/>
<path d="M213.527 191.633L207.455 211.815" stroke="#A0A09C" stroke-miterlimit="10" stroke-linecap="round" stroke-linejoin="round"/>
<path d="M225.303 202.816L217.563 217.106" stroke="#A0A09C" stroke-miterlimit="10" stroke-linecap="round" stroke-linejoin="round"/>
<path d="M230.848 205.296L239.386 219.819" stroke="#A0A09C" stroke-miterlimit="10" stroke-linecap="round" stroke-linejoin="round"/>
<path d="M247.09 212.551L240.748 230.585" stroke="#A0A09C" stroke-miterlimit="10" stroke-linecap="round" stroke-linejoin="round"/>
<path d="M247.09 234.784L251.457 224.533L259.933 227.823" stroke="#A0A09C" stroke-miterlimit="10" stroke-linecap="round" stroke-linejoin="round"/>
<path d="M258.891 244.58L259.933 234.784H281.903L283.216 228.695" stroke="#A0A09C" stroke-miterlimit="10" stroke-linecap="round" stroke-linejoin="round"/>
<path d="M272.261 255.666V234.784" stroke="#A0A09C" stroke-miterlimit="10" stroke-linecap="round" stroke-linejoin="round"/>
<path d="M259.933 243.033L296.501 251.05" stroke="#A0A09C" stroke-miterlimit="10" stroke-linecap="round" stroke-linejoin="round"/>
<path d="M272.261 258.735L300.892 262.246L357.713 245.525L378.395 261.534" stroke="#A0A09C" stroke-miterlimit="10" stroke-linecap="round" stroke-linejoin="round"/>
<path d="M216.177 194.137L223.009 176.938" stroke="#A0A09C" stroke-miterlimit="10" stroke-linecap="round" stroke-linejoin="round"/>
<path d="M195.114 176.938L219.231 186.452L228.541 183.064L237.754 187.545L248.156 201.724" stroke="#A0A09C" stroke-miterlimit="10" stroke-linecap="round" stroke-linejoin="round"/>
<path d="M284.529 212.551L283.216 219.819" stroke="#A0A09C" stroke-miterlimit="10" stroke-linecap="round" stroke-linejoin="round"/>
<path d="M310.865 224.533L259.933 200.631L251.456 199.305L246.083 203.7L308.412 230.585" stroke="#A0A09C" stroke-miterlimit="10" stroke-linecap="round" stroke-linejoin="round"/>
<path d="M312.362 203.7L323.881 202.816V183.064L348.108 171.487L353.113 176.938L383.13 176.066" stroke="#A0A09C" stroke-miterlimit="10" stroke-linecap="round" stroke-linejoin="round"/>
<path d="M301.8 227.737L295.323 248.018L313.674 241.634L343.029 238.663L357.713 245.525" stroke="#A0A09C" stroke-miterlimit="10" stroke-linecap="round" stroke-linejoin="round"/>
<path d="M151.873 217.511L145.715 243.033" stroke="#A0A09C" stroke-miterlimit="10" stroke-linecap="round" stroke-linejoin="round"/>
<path d="M331.597 82.2759L326.322 98.5542L324.727 109.652L317.061 126.974" stroke="#A0A09C" stroke-miterlimit="10" stroke-linecap="round" stroke-linejoin="round"/>
<path d="M285.522 95.6567L282.995 105.465L280.48 121.461L239.386 111.419L245.299 94.6746" stroke="#A0A09C" stroke-miterlimit="10" stroke-linecap="round" stroke-linejoin="round"/>
<path d="M297.434 95.6568L296.011 108.265" stroke="#A0A09C" stroke-miterlimit="10" stroke-linecap="round" stroke-linejoin="round"/>
<path d="M290.429 109.652L304.647 110.781V118.613" stroke="#A0A09C" stroke-miterlimit="10" stroke-linecap="round" stroke-linejoin="round"/>
<path d="M306.56 96.2829L305.456 104.631" stroke="#A0A09C" stroke-miterlimit="10" stroke-linecap="round" stroke-linejoin="round"/>
<path d="M310.865 63.6773L302.597 95.6569" stroke="#A0A09C" stroke-miterlimit="10" stroke-linecap="round" stroke-linejoin="round"/>
<path d="M322.641 66.2308L313.772 96.9583" stroke="#A0A09C" stroke-miterlimit="10" stroke-linecap="round" stroke-linejoin="round"/>
<path d="M270.875 97.8173L263.637 114.132" stroke="#A0A09C" stroke-miterlimit="10" stroke-linecap="round" stroke-linejoin="round"/>
<path d="M296.366 0.564789L303.493 14.2405L376.887 42.1077" stroke="#A0A09C" stroke-miterlimit="10" stroke-linecap="round" stroke-linejoin="round"/>
<path d="M295.323 33.1092L303.492 14.2405" stroke="#A0A09C" stroke-miterlimit="10" stroke-linecap="round" stroke-linejoin="round"/>
<path d="M317.061 54.6906L319.33 20.2557L322.642 0.564601L324.126 -8.36024L333.56 -31.7956" stroke="#A0A09C" stroke-miterlimit="10" stroke-linecap="round" stroke-linejoin="round"/>
<path d="M300.182 -9.12119L319.33 0.564782" stroke="#A0A09C" stroke-miterlimit="10" stroke-linecap="round" stroke-linejoin="round"/>
<path d="M275.696 7.21884L268.667 25.7192" stroke="#A0A09C" stroke-miterlimit="10" stroke-linecap="round" stroke-linejoin="round"/>
<path d="M255.885 5.78239L261.54 -13.6632L301.666 -12.8898" stroke="#A0A09C" stroke-miterlimit="10" stroke-linecap="round" stroke-linejoin="round"/>
<path d="M258.989 40.3892L242.588 38.5232L239.386 48.3074" stroke="#A0A09C" stroke-miterlimit="10" stroke-linecap="round" stroke-linejoin="round"/>
<path d="M234.454 51.4378L229.547 62.8056L233.473 67.5443" stroke="#A0A09C" stroke-miterlimit="10" stroke-linecap="round" stroke-linejoin="round"/>
<path d="M246.072 38.916L247.777 31.3538" stroke="#A0A09C" stroke-miterlimit="10" stroke-linecap="round" stroke-linejoin="round"/>
<path d="M254.609 31.722L262.46 33.0355" stroke="#A0A09C" stroke-miterlimit="10" stroke-linecap="round" stroke-linejoin="round"/>
<path d="M255.885 16.4628L264.423 18.1937" stroke="#A0A09C" stroke-miterlimit="10" stroke-linecap="round" stroke-linejoin="round"/>
<path d="M189.803 -30.3593L178.567 -6.49426L173.144 27.5355L170.016 31.3534" stroke="#A0A09C" stroke-miterlimit="10" stroke-linecap="round" stroke-linejoin="round"/>
<path d="M164.717 -26.3447L154.351 -2.09905L135.877 30.654L129.743 50.2224L135.521 59.6997L134.712 68.1703" stroke="#A0A09C" stroke-miterlimit="10" stroke-linecap="round" stroke-linejoin="round"/>
<path d="M164.3 151.404L127.413 121.462L117.6 129.184L102.842 158.72L118.274 180.29L56.1175 240.898L-11.7435 263.866L-44.3 277.223L-62.0749 289.487L-49.7834 306.232" stroke="#A0A09C" stroke-miterlimit="10" stroke-linecap="round" stroke-linejoin="round"/>
<path d="M-146.644 323.922L-123.177 295.22L-116.394 285.006L-102.679 264.971L-46.4352 213.84L37.7654 139.851L102.523 58.8773" stroke="#A0A09C" stroke-miterlimit="10" stroke-linecap="round" stroke-linejoin="round"/>
<path d="M30.9945 81.981L92.0473 109.627L117.599 129.183" stroke="#A0A09C" stroke-miterlimit="10" stroke-linecap="round" stroke-linejoin="round"/>
<path d="M13.1209 289.094L2.12963 255.297L-31.4451 202.816L-42.6326 193.462L-22.6129 170.296L9.71063 115.237L28.7122 82.9632L45.5548 48.3073" stroke="#A0A09C" stroke-miterlimit="10" stroke-linecap="round" stroke-linejoin="round"/>
<path d="M40.7709 86.4007L16.9362 121.462" stroke="#A0A09C" stroke-miterlimit="10" stroke-linecap="round" stroke-linejoin="round"/>
<path d="M51.1115 91.0899L23.8052 127.452L-4.39656 159.714" stroke="#A0A09C" stroke-miterlimit="10" stroke-linecap="round" stroke-linejoin="round"/>
<path d="M64.3485 97.081L32.7488 135.346" stroke="#A0A09C" stroke-miterlimit="10" stroke-linecap="round" stroke-linejoin="round"/>
<path d="M45.5549 147.045L70.8617 120.148L88.3789 127.452" stroke="#A0A09C" stroke-miterlimit="10" stroke-linecap="round" stroke-linejoin="round"/>
<path d="M57.3925 159.714L62.9249 150.2L50.1795 142.11" stroke="#A0A09C" stroke-miterlimit="10" stroke-linecap="round" stroke-linejoin="round"/>
<path d="M108.313 147.769L87.1032 133.59" stroke="#A0A09C" stroke-miterlimit="10" stroke-linecap="round" stroke-linejoin="round"/>
<path d="M115.392 133.59L91.0907 114.28" stroke="#A0A09C" stroke-miterlimit="10" stroke-linecap="round" stroke-linejoin="round"/>
<path d="M104.142 154.19L85.5082 141.337" stroke="#A0A09C" stroke-miterlimit="10" stroke-linecap="round" stroke-linejoin="round"/>
<path d="M80.774 164.33L97.7147 176.938V182.229L88.3796 192.86L81.9639 193.462" stroke="#A0A09C" stroke-miterlimit="10" stroke-linecap="round" stroke-linejoin="round"/>
<path d="M128.418 239.179L127.572 217.511L110.558 198.446L106.473 189.337L97.7142 182.229" stroke="#A0A09C" stroke-miterlimit="10" stroke-linecap="round" stroke-linejoin="round"/>
<path d="M110.386 169.253L104.449 173.243L99.0636 171.254L97.7142 176.938" stroke="#A0A09C" stroke-miterlimit="10" stroke-linecap="round" stroke-linejoin="round"/>
<path d="M46.9168 76.653L65.4154 86.4004" stroke="#A0A09C" stroke-miterlimit="10" stroke-linecap="round" stroke-linejoin="round"/>
<path d="M-39.4795 117.005L28.8476 175.109L72.9842 224.447L97.7144 262.552" stroke="#A0A09C" stroke-miterlimit="10" stroke-linecap="round" stroke-linejoin="round"/>
<path d="M80.3321 268.679L68.3349 228.989" stroke="#A0A09C" stroke-miterlimit="10" stroke-linecap="round" stroke-linejoin="round"/>
<path d="M75.2786 270.336L60.5827 236.551" stroke="#A0A09C" stroke-miterlimit="10" stroke-linecap="round" stroke-linejoin="round"/>
<path d="M64.3487 232.869L32.7489 198.704L1.45586 171.757L-15.215 157.701L-47.4649 129.183" stroke="#A0A09C" stroke-miterlimit="10" stroke-linecap="round" stroke-linejoin="round"/>
<path d="M-55.3902 140.674L-22.6128 170.296L21.6465 212.146L46.9164 244.015" stroke="#A0A09C" stroke-miterlimit="10" stroke-linecap="round" stroke-linejoin="round"/>
<path d="M62.9249 274.252L32.6745 248.84L-22.6128 192.86L-33.6408 183.064" stroke="#A0A09C" stroke-miterlimit="10" stroke-linecap="round" stroke-linejoin="round"/>
<path d="M9.24482 200.422L-15.7185 227.418" stroke="#A0A09C" stroke-miterlimit="10" stroke-linecap="round" stroke-linejoin="round"/>
<path d="M-18.2702 189.091L4.90208 205.112" stroke="#A0A09C" stroke-miterlimit="10" stroke-linecap="round" stroke-linejoin="round"/>
<path d="M62.9247 164.858L40.1081 187.704L32.7479 198.704L21.6463 212.146L10.5692 226.448L-14.0139 244.015" stroke="#A0A09C" stroke-miterlimit="10" stroke-linecap="round" stroke-linejoin="round"/>
<path d="M20.5429 236.551L10.4962 246.336L14.6424 254.941" stroke="#A0A09C" stroke-miterlimit="10" stroke-linecap="round" stroke-linejoin="round"/>
<path d="M19.0586 253.443L28.8477 284.527" stroke="#A0A09C" stroke-miterlimit="10" stroke-linecap="round" stroke-linejoin="round"/>
<path d="M36.8205 252.314L45.0762 279.715L65.1818 317.477L75.2775 346.719" stroke="#A0A09C" stroke-miterlimit="10" stroke-linecap="round" stroke-linejoin="round"/>
<path d="M36.8205 231.273L52.0684 219.598" stroke="#A0A09C" stroke-miterlimit="10" stroke-linecap="round" stroke-linejoin="round"/>
<path d="M67.9301 182.229L47.7754 196.273" stroke="#A0A09C" stroke-miterlimit="10" stroke-linecap="round" stroke-linejoin="round"/>
<path d="M57.8463 196.273L78.8351 182.229" stroke="#A0A09C" stroke-miterlimit="10" stroke-linecap="round" stroke-linejoin="round"/>
<path d="M56.2767 205.775L81.3749 189.779" stroke="#A0A09C" stroke-miterlimit="10" stroke-linecap="round" stroke-linejoin="round"/>
<path d="M66.4214 217.106L84.7238 200.422" stroke="#A0A09C" stroke-miterlimit="10" stroke-linecap="round" stroke-linejoin="round"/>
<path d="M28.8479 175.109L50.1802 151.624" stroke="#A0A09C" stroke-miterlimit="10" stroke-linecap="round" stroke-linejoin="round"/>
<path d="M45.5549 259.655L67.9299 253.443" stroke="#A0A09C" stroke-miterlimit="10" stroke-linecap="round" stroke-linejoin="round"/>
<path d="M54.3504 267.058L52.0688 257.838" stroke="#A0A09C" stroke-miterlimit="10" stroke-linecap="round" stroke-linejoin="round"/>
<path d="M107.344 204.437L90.5506 219.598" stroke="#A0A09C" stroke-miterlimit="10" stroke-linecap="round" stroke-linejoin="round"/>
<path d="M104.143 216.148L92.5749 226.338L107.344 224.533L121.218 210.71" stroke="#A0A09C" stroke-miterlimit="10" stroke-linecap="round" stroke-linejoin="round"/>
<path d="M96.3039 239.179L107.344 228.658L115.391 236.552L122.666 228.658L128.149 232.206" stroke="#A0A09C" stroke-miterlimit="10" stroke-linecap="round" stroke-linejoin="round"/>
<path d="M-16.9823 297.564L-10.6157 321.503L13.3908 314.641" stroke="#A0A09C" stroke-miterlimit="10" stroke-linecap="round" stroke-linejoin="round"/>
<path d="M16.5562 323.922L-1.79518 330.146" stroke="#A0A09C" stroke-miterlimit="10" stroke-linecap="round" stroke-linejoin="round"/>
<path d="M19.5977 332.773L-64.0877 352.513" stroke="#A0A09C" stroke-miterlimit="10" stroke-linecap="round" stroke-linejoin="round"/>
<path d="M-50.3606 323.922L-20.7113 390.177L-16.9821 403.361L21.9042 398.831" stroke="#A0A09C" stroke-miterlimit="10" stroke-linecap="round" stroke-linejoin="round"/>
<path d="M28.8479 359.572L-4.23614 370.363L-10.615 402.612L-5.31564 438.128" stroke="#A0A09C" stroke-miterlimit="10" stroke-linecap="round" stroke-linejoin="round"/>
<path d="M-60.2595 431.351L-15.6567 424.894L39.0295 422.426L57.7366 433.193L79.5473 457.524L174.113 453.915L308.793 458.997H386.455L422.005 463.417L451.09 472.366L472.054 485.109" stroke="#A0A09C" stroke-miterlimit="10" stroke-linecap="round" stroke-linejoin="round"/>
<path d="M-22.2439 347.995L23.9536 345.43" stroke="#A0A09C" stroke-miterlimit="10" stroke-linecap="round" stroke-linejoin="round"/>
<path d="M14.643 423.531V414.348L92.8941 264.357" stroke="#A0A09C" stroke-miterlimit="10" stroke-linecap="round" stroke-linejoin="round"/>
<path d="M-8.77528 414.913L14.6424 414.349" stroke="#A0A09C" stroke-miterlimit="10" stroke-linecap="round" stroke-linejoin="round"/>
<path d="M24.6769 395.112L40.0474 391.441" stroke="#A0A09C" stroke-miterlimit="10" stroke-linecap="round" stroke-linejoin="round"/>
<path d="M56.2889 334.528L24.6769 285.755L96.3038 341.87L54.3507 351.003" stroke="#A0A09C" stroke-miterlimit="10" stroke-linecap="round" stroke-linejoin="round"/>
<path d="M57.7367 275.86L65.1827 317.477" stroke="#A0A09C" stroke-miterlimit="10" stroke-linecap="round" stroke-linejoin="round"/>
<path d="M82.0006 285.227L60.6069 291.93" stroke="#A0A09C" stroke-miterlimit="10" stroke-linecap="round" stroke-linejoin="round"/>
<path d="M97.7141 317.477L72.162 322.952" stroke="#A0A09C" stroke-miterlimit="10" stroke-linecap="round" stroke-linejoin="round"/>
<path d="M97.0033 323.922L121.353 322.952" stroke="#A0A09C" stroke-miterlimit="10" stroke-linecap="round" stroke-linejoin="round"/>
<path d="M127.339 340.777L96.3039 341.87" stroke="#A0A09C" stroke-miterlimit="10" stroke-linecap="round" stroke-linejoin="round"/>
<path d="M95.7268 359.572L132.013 354.306" stroke="#A0A09C" stroke-miterlimit="10" stroke-linecap="round" stroke-linejoin="round"/>
<path d="M95.1625 378.17L138.563 373.027" stroke="#A0A09C" stroke-miterlimit="10" stroke-linecap="round" stroke-linejoin="round"/>
<path d="M106.89 423.961L99.1984 393.786L100.168 380.564" stroke="#A0A09C" stroke-miterlimit="10" stroke-linecap="round" stroke-linejoin="round"/>
<path d="M-54.2003 435.316L-35.6649 455.192L-29.6173 474.588L-22.6864 508.569L17.9541 529.438L37.6303 535.392" stroke="#A0A09C" stroke-miterlimit="10" stroke-linecap="round" stroke-linejoin="round"/>
<path d="M31.1539 521.041H21.9046L-10.6152 504.174H-23.5446" stroke="#A0A09C" stroke-miterlimit="10" stroke-linecap="round" stroke-linejoin="round"/>
<path d="M33.141 465.516L-7.35228 464.264" stroke="#A0A09C" stroke-miterlimit="10" stroke-linecap="round" stroke-linejoin="round"/>
<path d="M2.92749 560.694L25.6705 508.569" stroke="#A0A09C" stroke-miterlimit="10" stroke-linecap="round" stroke-linejoin="round"/>
<path d="M51.4435 434.138L53.7742 455.904L35.6068 530.961L24.6769 569.569L14.299 594.294" stroke="#A0A09C" stroke-miterlimit="10" stroke-linecap="round" stroke-linejoin="round"/>
<path d="M78.8966 592.072L70.5428 555.599" stroke="#A0A09C" stroke-miterlimit="10" stroke-linecap="round" stroke-linejoin="round"/>
<path d="M57.7367 592.072L73.0827 566.672" stroke="#A0A09C" stroke-miterlimit="10" stroke-linecap="round" stroke-linejoin="round"/>
<path d="M111.122 550.406L94.5369 579.366" stroke="#A0A09C" stroke-miterlimit="10" stroke-linecap="round" stroke-linejoin="round"/>
<path d="M114.937 479.83L87.4955 482.543L80.3193 553.021" stroke="#A0A09C" stroke-miterlimit="10" stroke-linecap="round" stroke-linejoin="round"/>
<path d="M89.3238 550.652L104.67 480.837" stroke="#A0A09C" stroke-miterlimit="10" stroke-linecap="round" stroke-linejoin="round"/>
<path d="M109.687 545.324L114.115 479.167" stroke="#A0A09C" stroke-miterlimit="10" stroke-linecap="round" stroke-linejoin="round"/>
<path d="M137.189 497.68L112.95 495.003" stroke="#A0A09C" stroke-miterlimit="10" stroke-linecap="round" stroke-linejoin="round"/>
<path d="M128.174 568.011L144.685 544.133" stroke="#A0A09C" stroke-miterlimit="10" stroke-linecap="round" stroke-linejoin="round"/>
<path d="M174.947 563.653L157.626 594.294" stroke="#A0A09C" stroke-miterlimit="10" stroke-linecap="round" stroke-linejoin="round"/>
<path d="M53.7746 489.823L79.5475 500.589" stroke="#A0A09C" stroke-miterlimit="10" stroke-linecap="round" stroke-linejoin="round"/>
<path d="M353.689 411.464L350.34 458.997L341.974 506.028L319.746 502.836" stroke="#A0A09C" stroke-miterlimit="10" stroke-linecap="round" stroke-linejoin="round"/>
<path d="M284.417 474.649L317.33 478.394H370.679V458.752" stroke="#A0A09C" stroke-miterlimit="10" stroke-linecap="round" stroke-linejoin="round"/>
<path d="M317.331 478.394L343.692 458.752L341.595 478.394" stroke="#A0A09C" stroke-miterlimit="10" stroke-linecap="round" stroke-linejoin="round"/>
<path d="M298.857 432.677L310.608 405.915" stroke="#A0A09C" stroke-miterlimit="10" stroke-linecap="round" stroke-linejoin="round"/>
<path d="M269.256 405.915H336.712H368.263" stroke="#A0A09C" stroke-miterlimit="10" stroke-linecap="round" stroke-linejoin="round"/>
<path d="M358.56 363.034L280.149 334.823L260.51 396.842" stroke="#A0A09C" stroke-miterlimit="10" stroke-linecap="round" stroke-linejoin="round"/>
<path d="M301.198 398.831L262.864 389.416" stroke="#A0A09C" stroke-miterlimit="10" stroke-linecap="round" stroke-linejoin="round"/>
<path d="M310.608 391.76L266.091 379.202" stroke="#A0A09C" stroke-miterlimit="10" stroke-linecap="round" stroke-linejoin="round"/>
<path d="M313.467 368.828L273.01 357.362L233.842 346.203" stroke="#A0A09C" stroke-miterlimit="10" stroke-linecap="round" stroke-linejoin="round"/>
<path d="M306.02 395.148L309.529 382.516L336.712 301.996L342.613 300.204L353.69 337.548" stroke="#A0A09C" stroke-miterlimit="10" stroke-linecap="round" stroke-linejoin="round"/>
<path d="M401.297 344.632L358.903 339.193L327.499 329.299L280.149 324.83L223.009 307.803L187.484 285.755L115.955 251.05" stroke="#A0A09C" stroke-miterlimit="10" stroke-linecap="round" stroke-linejoin="round"/>
<path d="M107.344 275.86L129.081 268.678L135.448 260.502" stroke="#A0A09C" stroke-miterlimit="10" stroke-linecap="round" stroke-linejoin="round"/>
<path d="M150.831 245.231L139.042 262.246" stroke="#A0A09C" stroke-miterlimit="10" stroke-linecap="round" stroke-linejoin="round"/>
<path d="M113.073 293.538L122.801 285.755L143.385 264.357L171.697 254.389" stroke="#A0A09C" stroke-miterlimit="10" stroke-linecap="round" stroke-linejoin="round"/>
<path d="M129.081 268.678L135.447 273.27L162.202 287.191" stroke="#A0A09C" stroke-miterlimit="10" stroke-linecap="round" stroke-linejoin="round"/>
<path d="M121.39 286.872L159.908 300.204" stroke="#A0A09C" stroke-miterlimit="10" stroke-linecap="round" stroke-linejoin="round"/>
<path d="M125.659 335.842L157.848 329.692" stroke="#A0A09C" stroke-miterlimit="10" stroke-linecap="round" stroke-linejoin="round"/>
<path d="M118.335 313.303L148.794 303.248L208.804 324.83" stroke="#A0A09C" stroke-miterlimit="10" stroke-linecap="round" stroke-linejoin="round"/>
<path d="M176.788 339.156L183.952 310.847" stroke="#A0A09C" stroke-miterlimit="10" stroke-linecap="round" stroke-linejoin="round"/>
<path d="M176.788 313.315L180.37 304.574" stroke="#A0A09C" stroke-miterlimit="10" stroke-linecap="round" stroke-linejoin="round"/>
<path d="M163.575 379.202L173.757 363.095L218.347 312.37L242.795 283.962" stroke="#A0A09C" stroke-miterlimit="10" stroke-linecap="round" stroke-linejoin="round"/>
<path d="M195.739 398.844L199.984 359.572L211.38 328.918L216.09 314.948" stroke="#A0A09C" stroke-miterlimit="10" stroke-linecap="round" stroke-linejoin="round"/>
<path d="M198.193 374.009H192.575V380.564" stroke="#A0A09C" stroke-miterlimit="10" stroke-linecap="round" stroke-linejoin="round"/>
<path d="M242.796 373.027L235.89 401.213L237.436 456.296" stroke="#A0A09C" stroke-miterlimit="10" stroke-linecap="round" stroke-linejoin="round"/>
<path d="M172.261 446.77L141.753 445.849L168.888 432.677L271.918 438.128" stroke="#A0A09C" stroke-miterlimit="10" stroke-linecap="round" stroke-linejoin="round"/>
<path d="M240.956 380.564L216.091 369.7L213.073 400.894L209.774 434.838L211.736 487.797L203.186 521.668L204.609 545.324L189.582 592.072" stroke="#A0A09C" stroke-miterlimit="10" stroke-linecap="round" stroke-linejoin="round"/>
<path d="M219.415 517.567L220.58 551.609L207.442 582.816" stroke="#A0A09C" stroke-miterlimit="10" stroke-linecap="round" stroke-linejoin="round"/>
<path d="M215.268 580.483L220.58 568.011L219.562 554.04" stroke="#A0A09C" stroke-miterlimit="10" stroke-linecap="round" stroke-linejoin="round"/>
<path d="M197.016 568.968L191.962 542.562L220.188 539.935" stroke="#A0A09C" stroke-miterlimit="10" stroke-linecap="round" stroke-linejoin="round"/>
<path d="M194.489 555.599L182.774 567.814" stroke="#A0A09C" stroke-miterlimit="10" stroke-linecap="round" stroke-linejoin="round"/>
<path d="M298.857 592.072L317.147 527.879" stroke="#A0A09C" stroke-miterlimit="10" stroke-linecap="round" stroke-linejoin="round"/>
<path d="M282.959 547.03L309.247 555.599" stroke="#A0A09C" stroke-miterlimit="10" stroke-linecap="round" stroke-linejoin="round"/>
<path d="M262.865 546.527L269.563 548.565L313.712 539.935L267.367 533.833L249.199 527.879" stroke="#A0A09C" stroke-miterlimit="10" stroke-linecap="round" stroke-linejoin="round"/>
<path d="M270.163 525.756L251.603 519.188" stroke="#A0A09C" stroke-miterlimit="10" stroke-linecap="round" stroke-linejoin="round"/>
<path d="M245.115 511.061L234.921 538.228L245.115 539.935L254.928 508.581" stroke="#A0A09C" stroke-miterlimit="10" stroke-linecap="round" stroke-linejoin="round"/>
<path d="M217.931 489.062L232.651 514.216L240.956 493.788L249.199 456.751L258.633 418.338" stroke="#A0A09C" stroke-miterlimit="10" stroke-linecap="round" stroke-linejoin="round"/>
<path d="M253.456 418.338L258.633 398.844" stroke="#A0A09C" stroke-miterlimit="10" stroke-linecap="round" stroke-linejoin="round"/>
<path d="M262.864 419.296L267.305 403.73" stroke="#A0A09C" stroke-miterlimit="10" stroke-linecap="round" stroke-linejoin="round"/>
<path d="M224.923 461.894L223.353 475.619L243.826 480.886" stroke="#A0A09C" stroke-miterlimit="10" stroke-linecap="round" stroke-linejoin="round"/>
<path d="M245.715 472.403L282.308 484.851" stroke="#A0A09C" stroke-miterlimit="10" stroke-linecap="round" stroke-linejoin="round"/>
<path d="M265.085 499.03L273.009 457.647L270.249 443.898" stroke="#A0A09C" stroke-miterlimit="10" stroke-linecap="round" stroke-linejoin="round"/>
<path d="M189.582 454.492V471.384H198.194V454.823" stroke="#A0A09C" stroke-miterlimit="10" stroke-linecap="round" stroke-linejoin="round"/>
<path d="M151.431 414.349L157.626 439.724L154.657 456.297V475.828L136.146 538.633L179.633 566.672" stroke="#A0A09C" stroke-miterlimit="10" stroke-linecap="round" stroke-linejoin="round"/>
<path d="M133.681 455.462V472.403" stroke="#A0A09C" stroke-miterlimit="10" stroke-linecap="round" stroke-linejoin="round"/>
<path d="M187.619 506.028L154.265 477.154" stroke="#A0A09C" stroke-miterlimit="10" stroke-linecap="round" stroke-linejoin="round"/>
<path d="M359.21 524.258L346.698 556.778L318.422 547.03" stroke="#A0A09C" stroke-miterlimit="10" stroke-linecap="round" stroke-linejoin="round"/>
<path d="M317.331 524.356L354.561 536.338" stroke="#A0A09C" stroke-miterlimit="10" stroke-linecap="round" stroke-linejoin="round"/>
<path d="M269.562 548.565L268.924 566.672L180.308 568.968" stroke="#A0A09C" stroke-miterlimit="10" stroke-linecap="round" stroke-linejoin="round"/>
<path d="M261.135 551.315L279.732 556.778" stroke="#A0A09C" stroke-miterlimit="10" stroke-linecap="round" stroke-linejoin="round"/>
<path d="M67.3285 443.898H91.6294" stroke="#A0A09C" stroke-miterlimit="10" stroke-linecap="round" stroke-linejoin="round"/>
<path d="M205.921 268.678L196.93 291.623L236.429 291.365L246.083 314.039L230.382 355.275L191.63 343.944L157.872 332.761" stroke="#A0A09C" stroke-miterlimit="10" stroke-linecap="round" stroke-linejoin="round"/>
<path d="M276.543 346.203L238.957 332.76" stroke="#A0A09C" stroke-miterlimit="10" stroke-linecap="round" stroke-linejoin="round"/>
<path d="M280.149 334.823L282.026 324.83" stroke="#A0A09C" stroke-miterlimit="10" stroke-linecap="round" stroke-linejoin="round"/>
<path d="M281.094 290.309L288.356 310" stroke="#A0A09C" stroke-miterlimit="10" stroke-linecap="round" stroke-linejoin="round"/>
<path d="M367.613 292.617L280.149 319.158" stroke="#A0A09C" stroke-miterlimit="10" stroke-linecap="round" stroke-linejoin="round"/>
<path d="M286.491 317.243L293.152 295.195L290.515 287.191" stroke="#A0A09C" stroke-miterlimit="10" stroke-linecap="round" stroke-linejoin="round"/>
<path d="M289.913 305.888L308.179 302.094" stroke="#A0A09C" stroke-miterlimit="10" stroke-linecap="round" stroke-linejoin="round"/>
<path d="M303.493 291.365L293.152 295.195" stroke="#A0A09C" stroke-miterlimit="10" stroke-linecap="round" stroke-linejoin="round"/>
<path d="M238.281 289.217L250.107 297.847V308.945L246.083 314.039" stroke="#A0A09C" stroke-miterlimit="10" stroke-linecap="round" stroke-linejoin="round"/>
<path d="M253.456 316.875L256.044 308.945L280.689 314.948" stroke="#A0A09C" stroke-miterlimit="10" stroke-linecap="round" stroke-linejoin="round"/>
<path d="M275.978 302.094L256.045 297.073V288.394" stroke="#A0A09C" stroke-miterlimit="10" stroke-linecap="round" stroke-linejoin="round"/>
<path d="M289.815 348.781L295.323 359.572L314.398 347.148" stroke="#A0A09C" stroke-miterlimit="10" stroke-linecap="round" stroke-linejoin="round"/>
<path d="M289.816 371.578L282.026 405.915" stroke="#A0A09C" stroke-miterlimit="10" stroke-linecap="round" stroke-linejoin="round"/>
<path d="M157.847 319.159L180.37 324.83" stroke="#A0A09C" stroke-miterlimit="10" stroke-linecap="round" stroke-linejoin="round"/>
<path d="M145.715 331.779L143.532 316.875" stroke="#A0A09C" stroke-miterlimit="10" stroke-linecap="round" stroke-linejoin="round"/>
<path d="M150.83 320.214L136.87 321.503" stroke="#A0A09C" stroke-miterlimit="10" stroke-linecap="round" stroke-linejoin="round"/>
<path d="M201.935 331.054L187.828 329.692" stroke="#A0A09C" stroke-miterlimit="10" stroke-linecap="round" stroke-linejoin="round"/>
<path d="M143.532 385.499C143.532 385.499 149.064 383.13 150.818 385.487C150.818 385.487 152.83 378.612 159.54 382.136C159.54 382.136 160.595 380.564 164.803 380.564H197.715" stroke="#A0A09C" stroke-miterlimit="10" stroke-linecap="round" stroke-linejoin="round"/>
<path d="M148.794 400.943L168.679 394.363" stroke="#A0A09C" stroke-miterlimit="10" stroke-linecap="round" stroke-linejoin="round"/>
<path d="M150.83 385.487L155.111 398.844" stroke="#A0A09C" stroke-miterlimit="10" stroke-linecap="round" stroke-linejoin="round"/>
<path d="M159.552 382.123L163.576 396.057" stroke="#A0A09C" stroke-miterlimit="10" stroke-linecap="round" stroke-linejoin="round"/>
<path d="M167.108 194.137L156.816 204.437L113.072 159.063C113.072 159.063 110.582 155.528 115.955 150.875C121.328 146.222 124.432 150.2 124.432 150.2L167.108 194.137Z" stroke="#A0A09C" stroke-miterlimit="10" stroke-linecap="round" stroke-linejoin="round"/>
<path d="M113.073 159.064L102.842 158.72" stroke="#A0A09C" stroke-miterlimit="10" stroke-linecap="round" stroke-linejoin="round"/>
<path d="M123.635 149.488L124.432 123.806" stroke="#A0A09C" stroke-miterlimit="10" stroke-linecap="round" stroke-linejoin="round"/>
<path d="M147.776 137.985L116.249 169.253" stroke="#A0A09C" stroke-miterlimit="10" stroke-linecap="round" stroke-linejoin="round"/>
<path d="M149.8 213.914L120.42 185.544L141.753 164.33C141.753 164.33 147.408 160.353 151.137 158.892C154.866 157.419 159.638 156.744 158.89 152.607C158.141 148.47 145.985 139.753 145.985 139.753" stroke="#A0A09C" stroke-miterlimit="10" stroke-linecap="round" stroke-linejoin="round"/>
<path d="M134.564 171.487L157.417 194.137L152.413 199.882" stroke="#A0A09C" stroke-miterlimit="10" stroke-linecap="round" stroke-linejoin="round"/>
<path d="M149.997 176.533L139.803 186.784" stroke="#A0A09C" stroke-miterlimit="10" stroke-linecap="round" stroke-linejoin="round"/>
<path d="M152.634 209.961L124.432 181.763" stroke="#A0A09C" stroke-miterlimit="10" stroke-linecap="round" stroke-linejoin="round"/>
<path d="M123.634 176.827L106.902 158.72L124.432 127.452L143.605 142.11L163.796 191.399L153.983 201.503" stroke="#A0A09C" stroke-miterlimit="10" stroke-linecap="round" stroke-linejoin="round"/>
<path d="M147.776 216.075L128.148 196.826" stroke="#A0A09C" stroke-miterlimit="10" stroke-linecap="round" stroke-linejoin="round"/>
<path d="M160.374 183.064L164.299 181.763L162.336 171.487" stroke="#A0A09C" stroke-miterlimit="10" stroke-linecap="round" stroke-linejoin="round"/>
<path d="M-152.949 -34.8644C-152.949 -34.8644 -108.175 19.7649 -80.574 40.6346C-52.9732 61.5042 43.3226 142.528 51.9095 153.576C60.4963 164.625 73.99 172.604 77.6701 179.356C81.3502 186.108 113.244 297.208 119.991 318.692C126.738 340.175 147.592 398.488 147.592 398.488C147.592 398.488 153.725 413.219 162.926 410.764C162.926 410.764 173.917 410.15 167.195 388.667C160.472 367.183 147.972 318.385 171.697 254.389C171.697 254.389 204.376 321.147 214.619 333.423C224.862 345.7 254.302 392.349 262.276 398.488C270.249 404.626 275.156 416.288 281.903 424.268C288.65 432.247 290.49 442.682 302.757 452.503C315.024 462.324 323.611 487.49 318.091 518.181C312.571 548.872 331.584 594.294 331.584 594.294" stroke="#686866" stroke-width="3" stroke-miterlimit="10" stroke-linecap="round" stroke-linejoin="round"/>
<path d="M138.404 47.4232L174.628 192.86C174.628 192.86 171.512 168.921 179.486 154.19C187.46 139.458 205.774 88.6101 205.774 88.6101" stroke="#686866" stroke-width="3" stroke-miterlimit="10" stroke-linecap="round" stroke-linejoin="round"/>
<path d="M77.6706 179.356L121.218 -31.7956" stroke="#686866" stroke-width="3" stroke-miterlimit="10" stroke-linecap="round" stroke-linejoin="round"/>
<path d="M59.2693 -31.7956C59.2693 -31.7956 66.5068 14.2403 129.743 2.5779C192.979 -9.08455 297.862 -31.7956 297.862 -31.7956" stroke="#686866" stroke-width="3" stroke-miterlimit="10" stroke-linecap="round" stroke-linejoin="round"/>
<path d="M255.885 -22.846L241.226 12.4483" stroke="#686866" stroke-width="3" stroke-miterlimit="10" stroke-linecap="round" stroke-linejoin="round"/>
<path d="M39.0289 -31.7956C39.0289 -31.7956 -18.3316 103.084 -84.2421 177.502" stroke="#686866" stroke-width="3" stroke-miterlimit="10" stroke-linecap="round" stroke-linejoin="round"/>
<path d="M-152.949 259.766C-152.949 259.766 -8.8121 431.02 -3.9053 440.227C1.00149 449.434 45.776 559.564 51.2961 560.669C56.8163 561.774 76.8483 530.457 76.8483 530.457" stroke="#686866" stroke-width="3" stroke-miterlimit="10" stroke-linecap="round" stroke-linejoin="round"/>
<path d="M42.7827 546.306C42.7827 546.306 55.3319 518.795 64.3604 523.705C73.3889 528.616 101.971 539.014 120.187 558.975C138.404 578.949 148.745 594.294 148.745 594.294" stroke="#686866" stroke-width="3" stroke-miterlimit="10" stroke-linecap="round" stroke-linejoin="round"/>
<path d="M277.622 502.836L105.811 546.306L51.2961 560.669L37.6307 594.294" stroke="#686866" stroke-width="3" stroke-miterlimit="10" stroke-linecap="round" stroke-linejoin="round"/>
<path d="M203.186 521.668L177.156 558.189" stroke="#686866" stroke-width="3" stroke-miterlimit="10" stroke-linecap="round" stroke-linejoin="round"/>
<path d="M-152.949 438.999C-152.949 438.999 -78.1206 432.247 -54.1999 435.316C-30.2793 438.386 223.034 489.946 254.928 496.698C286.822 503.45 442 545.827 472.054 560.853" stroke="#686866" stroke-width="3" stroke-miterlimit="10" stroke-linecap="round" stroke-linejoin="round"/>
<path d="M-152.949 497.68C-152.949 497.68 -127.802 482.58 -106.335 475.828C-84.8674 469.076 -19.7052 450.969 -1.68498 444.978C16.3352 438.987 51.3329 434.089 72.7756 431.02C94.2183 427.951 151.873 412.605 162.913 410.764C162.913 410.764 168.887 410.899 169.022 404.135C169.022 404.135 183.35 395.419 209.626 400.329C235.902 405.24 255.259 395.185 265.514 401.434" stroke="#686866" stroke-width="3" stroke-miterlimit="10" stroke-linecap="round" stroke-linejoin="round"/>
<path d="M168.888 523.116L95.5433 464.251C95.5433 464.251 88.4039 438.115 92.2435 426.588C96.0708 415.06 94.795 299.05 102.486 259.766" stroke="#686866" stroke-width="3" stroke-miterlimit="10" stroke-linecap="round" stroke-linejoin="round"/>
<path d="M-48.0662 305.802C-48.0662 305.802 -28.439 343.244 -8.19848 365.956C12.042 388.667 36.576 412.605 39.0294 422.426C41.4828 432.247 24.4808 505.831 24.4808 505.831L60.4966 523.116" stroke="#686866" stroke-width="3" stroke-miterlimit="10" stroke-linecap="round" stroke-linejoin="round"/>
<path d="M-152.949 473.373C-152.949 473.373 -125.348 484.422 -108.175 494.856C-91.0009 505.291 -57.2667 515.726 -46.8397 524.933C-36.4128 534.14 -12.4922 554.396 7.74833 562.376C27.9889 570.355 59.883 585.701 68.4699 594.294" stroke="#686866" stroke-width="3" stroke-miterlimit="10" stroke-linecap="round" stroke-linejoin="round"/>
<path d="M289.497 436.335C289.497 436.335 287.436 470.304 277.622 502.836C267.809 535.368 245.115 594.294 245.115 594.294" stroke="#686866" stroke-width="3" stroke-miterlimit="10" stroke-linecap="round" stroke-linejoin="round"/>
<path d="M296.231 506.973L267.305 594.294" stroke="#686866" stroke-width="3" stroke-miterlimit="10" stroke-linecap="round" stroke-linejoin="round"/>
<path d="M327.352 582.816L171.034 536.338" stroke="#686866" stroke-width="3" stroke-miterlimit="10" stroke-linecap="round" stroke-linejoin="round"/>
<path d="M234.369 513.774C234.369 513.774 239.607 550.1 223.353 594.294" stroke="#686866" stroke-width="3" stroke-miterlimit="10" stroke-linecap="round" stroke-linejoin="round"/>
<path d="M139.607 581.956L169.697 530.961" stroke="#686866" stroke-width="3" stroke-miterlimit="10" stroke-linecap="round" stroke-linejoin="round"/>
<path d="M95.5432 464.264L68.47 525.756" stroke="#686866" stroke-width="3" stroke-miterlimit="10" stroke-linecap="round" stroke-linejoin="round"/>
<path d="M-99.9681 499.3C-99.9681 499.3 -33.1621 467.333 9.36753 470.66C51.8972 473.987 89.3115 478.381 89.3115 478.381" stroke="#686866" stroke-width="3" stroke-miterlimit="10" stroke-linecap="round" stroke-linejoin="round"/>
<path d="M192.047 523.116L162.925 410.764L322.678 423.408" stroke="#686866" stroke-width="3" stroke-miterlimit="10" stroke-linecap="round" stroke-linejoin="round"/>
<path d="M254.928 496.698L277.622 418.473C277.622 418.473 313.111 385.598 351.175 366.569C389.252 347.541 461.014 325.444 472.054 299.05" stroke="#686866" stroke-width="3" stroke-miterlimit="10" stroke-linecap="round" stroke-linejoin="round"/>
<path d="M472.054 357.362C472.054 357.362 452.427 374.549 388.025 398.488C323.624 422.426 193.422 473.987 183.694 478.897C173.966 483.808 166.312 516.192 169.698 530.961C173.096 545.729 187.902 594.294 187.902 594.294" stroke="#222221" stroke-width="3" stroke-miterlimit="10" stroke-linecap="round" stroke-linejoin="round"/>
<path d="M-152.949 170.763C-152.949 170.763 -92.2276 154.804 -57.2667 199.612C-22.3058 244.42 5.44213 291.291 5.44213 291.291C5.44213 291.291 40.2558 394.191 48.8427 415.06C57.4296 435.93 69.0833 446.365 62.3364 462.324C55.5896 478.283 47.616 515.726 47.616 515.726" stroke="#222221" stroke-width="3" stroke-miterlimit="10" stroke-linecap="round" stroke-linejoin="round"/>
<path d="M-152.949 273.27C-152.949 273.27 -71.3737 299.05 -46.8398 308.871C-22.3058 318.692 44.905 354.293 64.3482 363.5C83.7913 372.708 162.926 410.764 162.926 410.764L192.403 524.393L203.186 521.668L177.155 558.19" stroke="#222221" stroke-width="3" stroke-miterlimit="10" stroke-linecap="round" stroke-linejoin="round"/>
<path d="M129.743 238.663C129.743 238.663 168.544 202.681 174.628 192.86C180.713 183.039 195.433 136.389 209.54 134.548C223.647 132.707 309.516 124.727 319.33 128.41C329.143 132.093 376.371 156.645 388.638 157.873C400.905 159.1 456.72 156.645 472.054 154.19" stroke="#222221" stroke-width="3" stroke-miterlimit="10" stroke-linecap="round" stroke-linejoin="round"/>
<path d="M-152.949 324.83C-152.949 324.83 -87.3208 315.623 -48.0664 305.802C-8.8121 295.981 93.5436 266.518 105.234 259.152C116.924 251.786 124.174 237.669 132.81 238.282C141.446 238.896 257.381 296.595 276.395 291.684C295.409 286.774 381.278 251.173 472.054 249.331" stroke="#222221" stroke-width="4" stroke-miterlimit="10" stroke-linecap="round" stroke-linejoin="round"/>
<path d="M-152.949 68.2562C-152.949 68.2562 -98.9744 34.4965 -68.307 17.9235C-37.6395 1.35056 18.7886 -34.8644 18.7886 -34.8644" stroke="#222221" stroke-width="4" stroke-miterlimit="10" stroke-linecap="round" stroke-linejoin="round"/>
<path d="M362.264 0.564901C362.264 0.564901 307.062 1.96439 286.822 0.736768C266.581 -0.490858 257.381 5.03346 245.728 10.5578C234.074 16.0821 154.339 42.476 119.378 53.5247C84.4167 64.5733 -9.91639 98.4926 -9.91639 98.4926L-91.8108 31.2187L-146.644 -26.3447" stroke="#222221" stroke-width="4" stroke-miterlimit="10" stroke-linecap="round" stroke-linejoin="round"/>
</g>
</svg>
