<svg width="255" height="193" viewBox="0 0 255 193" fill="none" xmlns="http://www.w3.org/2000/svg">
<g clip-path="url(#clip0)">
<path d="M102.038 40.0238H101.108V14.6726C101.108 12.7458 100.726 10.8378 99.9852 9.05764C99.244 7.27748 98.1576 5.65998 96.788 4.29751C95.4184 2.93503 93.7924 1.85426 92.0029 1.11689C90.2134 0.379521 88.2955 1.63256e-06 86.3585 0H32.3672C28.4554 -7.41836e-06 24.7038 1.54584 21.9377 4.29747C19.1716 7.04911 17.6177 10.7811 17.6177 14.6725V153.751C17.6177 155.678 17.9992 157.586 18.7404 159.366C19.4816 161.146 20.5681 162.764 21.9377 164.126C23.3073 165.489 24.9333 166.569 26.7227 167.307C28.5122 168.044 30.4302 168.424 32.3671 168.424H86.3585C90.2702 168.424 94.0218 166.878 96.7879 164.126C99.554 161.375 101.108 157.643 101.108 153.751V58.0692H102.038V40.0238Z" fill="#3F3D56"/>
<path d="M86.9536 3.81726H79.9059C80.23 4.60772 80.3538 5.46533 80.2662 6.31456C80.1786 7.16378 79.8825 7.97855 79.4038 8.68709C78.9251 9.39563 78.2786 9.97619 77.5213 10.3776C76.7639 10.7791 75.919 10.9891 75.0608 10.9892H44.1299C43.2717 10.9891 42.4268 10.7791 41.6694 10.3776C40.9121 9.9762 40.2656 9.39564 39.7869 8.6871C39.3082 7.97856 39.0121 7.16379 38.9245 6.31456C38.8369 5.46534 38.9607 4.60772 39.2848 3.81726H32.7022C31.2558 3.81726 29.8235 4.10068 28.4871 4.65133C27.1507 5.20199 25.9365 6.0091 24.9136 7.02658C23.8908 8.04406 23.0795 9.25198 22.5259 10.5814C21.9724 11.9108 21.6875 13.3356 21.6875 14.7746V153.649C21.6875 155.088 21.9724 156.513 22.5259 157.842C23.0795 159.172 23.8908 160.38 24.9136 161.397C25.9364 162.415 27.1507 163.222 28.4871 163.772C29.8234 164.323 31.2557 164.606 32.7022 164.606H86.9536C88.4001 164.606 89.8324 164.323 91.1687 163.772C92.5051 163.222 93.7194 162.415 94.7422 161.397C95.765 160.38 96.5763 159.172 97.1299 157.842C97.6834 156.513 97.9683 155.088 97.9683 153.649V14.7746C97.9683 13.3356 97.6834 11.9108 97.1299 10.5814C96.5763 9.25198 95.765 8.04406 94.7422 7.02658C93.7194 6.0091 92.5051 5.20199 91.1687 4.65133C89.8324 4.10068 88.4001 3.81726 86.9536 3.81726Z" fill="white"/>
<path d="M119.343 168.448H0.312418C0.229559 168.448 0.150094 168.415 0.0915047 168.357C0.0329151 168.298 0 168.219 0 168.137C0 168.054 0.0329151 167.975 0.0915047 167.917C0.150094 167.859 0.229559 167.826 0.312418 167.826H119.343C119.426 167.826 119.506 167.859 119.564 167.917C119.623 167.975 119.656 168.054 119.656 168.137C119.656 168.219 119.623 168.298 119.564 168.357C119.506 168.415 119.426 168.448 119.343 168.448Z" fill="#CBCBCB"/>
<path d="M59.8279 107.434C74.3985 107.434 86.2104 95.6833 86.2104 81.1886C86.2104 66.6939 74.3985 54.9436 59.8279 54.9436C45.2573 54.9436 33.4454 66.6939 33.4454 81.1886C33.4454 95.6833 45.2573 107.434 59.8279 107.434Z" fill="#20CE88"/>
<path d="M57.2136 91.2002C56.62 91.2012 56.0423 91.0102 55.5674 90.656L55.538 90.634L49.3377 85.9158C49.0506 85.6968 48.8096 85.4236 48.6285 85.112C48.4475 84.8003 48.3299 84.4563 48.2825 84.0994C48.2351 83.7426 48.2589 83.3799 48.3524 83.0322C48.4459 82.6845 48.6073 82.3585 48.8274 82.0728C49.0476 81.7872 49.3222 81.5474 49.6354 81.3673C49.9487 81.1872 50.2946 81.0703 50.6533 81.0231C51.012 80.976 51.3766 80.9996 51.7261 81.0926C52.0757 81.1856 52.4034 81.3462 52.6905 81.5652L56.7065 84.6288L66.1966 72.3126C66.4167 72.027 66.6911 71.7874 67.0043 71.6073C67.3174 71.4273 67.6631 71.3104 68.0217 71.2633C68.3803 71.2162 68.7447 71.2398 69.0941 71.3327C69.4435 71.4257 69.771 71.5862 70.0581 71.8052L70.0589 71.8058L70 71.8871L70.0605 71.8058C70.6396 72.2485 71.0184 72.9017 71.114 73.622C71.2095 74.3423 71.0138 75.0709 70.5699 75.6479L59.4076 90.1281C59.1493 90.4617 58.8173 90.7317 58.4372 90.9171C58.0571 91.1024 57.6393 91.1982 57.216 91.197L57.2136 91.2002Z" fill="white"/>
<path d="M216.894 171.027C217.215 170.511 217.593 170.032 218.021 169.599C218.197 169.417 218.383 169.246 218.575 169.079C219.742 168.046 221.164 167.341 222.695 167.036C224.226 166.731 225.811 166.837 227.288 167.344C228.764 167.851 230.078 168.739 231.095 169.918C232.111 171.098 232.794 172.525 233.072 174.054C234.36 169.313 231.006 164.644 227.634 161.058C224.26 157.473 220.404 153.54 220.423 148.627C220.432 145.893 221.777 143.455 223.806 141.646C223.869 141.592 223.931 141.537 223.995 141.484C226.448 139.392 229.604 138.298 232.833 138.42C238.831 138.74 244.068 142.75 247.705 147.507C253.56 155.161 256.125 165.905 252.027 174.618C248.422 182.28 240.733 186.831 232.886 190.489C231.791 191 230.697 191.496 229.606 191.976C229.599 191.978 229.591 191.983 229.584 191.985C229.531 192.008 229.478 192.031 229.429 192.054C229.204 192.153 228.979 192.252 228.755 192.35L228.859 192.417L229.181 192.625C229.07 192.557 228.959 192.492 228.847 192.425C228.814 192.404 228.779 192.385 228.745 192.364C224.892 190.064 220.984 187.631 218.321 184.039C215.56 180.31 214.45 174.969 216.894 171.027Z" fill="#20CE88"/>
<path d="M242.607 162.368C243.461 164.299 244.026 166.343 244.287 168.437C244.491 170.304 244.414 172.191 244.058 174.035C243.293 177.825 241.624 181.377 239.192 184.392C237.356 186.68 235.238 188.729 232.886 190.489C231.791 191 230.697 191.496 229.606 191.976C229.599 191.978 229.591 191.983 229.584 191.985C229.531 192.008 229.478 192.031 229.429 192.054C229.204 192.153 228.979 192.252 228.755 192.35L228.859 192.417L229.181 192.625C229.07 192.557 228.959 192.492 228.847 192.425C228.814 192.404 228.779 192.385 228.746 192.364C229.594 189.413 229.718 186.303 229.109 183.294C228.5 180.285 227.175 177.465 225.244 175.07C223.303 172.706 220.828 170.831 218.021 169.599C218.197 169.417 218.383 169.246 218.575 169.079C219.656 169.573 220.692 170.161 221.669 170.836C225.164 173.24 227.789 176.698 229.154 180.701C230.373 184.332 230.525 188.234 229.593 191.948C229.786 191.822 229.981 191.693 230.169 191.564C233.76 189.156 237.069 186.263 239.561 182.716C241.711 179.718 243.086 176.24 243.567 172.589C244.044 168.6 243.041 164.678 241.251 161.119C239.274 157.312 236.784 153.791 233.848 150.655C230.899 147.432 227.565 144.581 223.921 142.164C223.838 142.108 223.781 142.024 223.759 141.928C223.738 141.831 223.755 141.731 223.806 141.646C223.845 141.57 223.913 141.511 223.995 141.484C224.037 141.474 224.081 141.473 224.123 141.481C224.165 141.489 224.205 141.507 224.239 141.533C224.689 141.832 225.135 142.133 225.576 142.444C229.246 145.029 232.58 148.058 235.5 151.461C238.321 154.742 240.889 158.386 242.607 162.368Z" fill="white"/>
<path d="M164.032 12.1862C167.127 12.1862 169.635 9.69074 169.635 6.61247C169.635 3.53419 167.127 1.03876 164.032 1.03876C160.938 1.03876 158.429 3.53419 158.429 6.61247C158.429 9.69074 160.938 12.1862 164.032 12.1862Z" fill="#20CE88"/>
<path d="M233.701 86.7756C235.588 86.7756 237.117 85.2541 237.117 83.3774C237.117 81.5006 235.588 79.9792 233.701 79.9792C231.815 79.9792 230.285 81.5006 230.285 83.3774C230.285 85.2541 231.815 86.7756 233.701 86.7756Z" fill="#20CE88"/>
<path d="M133.728 96.0992C135.614 96.0992 137.144 94.5778 137.144 92.701C137.144 90.8243 135.614 89.3029 133.728 89.3029C131.841 89.3029 130.312 90.8243 130.312 92.701C130.312 94.5778 131.841 96.0992 133.728 96.0992Z" fill="#20CE88"/>
<path d="M135.657 193H254.688C254.77 193 254.85 192.967 254.909 192.909C254.967 192.851 255 192.772 255 192.689C255 192.607 254.967 192.528 254.909 192.469C254.85 192.411 254.77 192.378 254.688 192.378H135.657C135.574 192.378 135.494 192.411 135.436 192.469C135.377 192.528 135.344 192.607 135.344 192.689C135.344 192.772 135.377 192.851 135.436 192.909C135.494 192.967 135.574 193 135.657 193Z" fill="#CBCBCB"/>
<path d="M241.552 30.0331C241.708 28.9292 241.452 27.8067 240.832 26.8781C240.212 25.9496 239.271 25.2796 238.187 24.9951C237.104 24.7106 235.953 24.8314 234.953 25.3345C233.953 25.8377 233.173 26.6883 232.761 27.7251L223.102 38.7408L225.936 46.6152L235.65 33.7438C236.284 33.9458 236.955 34.0071 237.615 33.9233C238.276 33.8396 238.909 33.6128 239.472 33.259C240.035 32.9053 240.512 32.4331 240.872 31.8757C241.231 31.3183 241.463 30.6894 241.552 30.0331Z" fill="#FFB7B7"/>
<path d="M201.513 72.8953L233.577 38.8549L229.252 32.015L189.036 65.8487L201.513 72.8953Z" fill="#660188"/>
<path d="M194.357 52.2126C200.569 52.2126 205.604 47.2034 205.604 41.0242C205.604 34.845 200.569 29.8358 194.357 29.8358C188.146 29.8358 183.11 34.845 183.11 41.0242C183.11 47.2034 188.146 52.2126 194.357 52.2126Z" fill="#2F2E41"/>
<path d="M195.261 34.7037C197.682 32.2623 200.61 30.3783 203.841 29.1844C205.915 28.42 208.173 27.9478 210.341 28.3818C212.51 28.8159 214.56 30.3081 215.165 32.4245C215.66 34.1551 215.149 36.0184 214.381 37.6475C213.614 39.2766 212.589 40.7872 211.968 42.4771C211.335 44.2014 211.144 46.0557 211.414 47.8718C211.684 49.6879 212.405 51.4082 213.513 52.8766C214.62 54.3449 216.079 55.5149 217.756 56.2802C219.434 57.0455 221.277 57.3819 223.118 57.259C220.987 57.5431 219.024 58.5391 216.941 59.0692C214.859 59.5994 212.401 59.5634 210.853 58.0793C209.216 56.5091 209.183 53.956 209.262 51.6949C209.38 48.3338 209.498 44.9726 209.615 41.6114C209.675 39.8973 209.727 38.1282 209.105 36.5283C208.484 34.9284 207.007 33.5274 205.283 33.542C203.976 33.553 202.82 34.3405 201.772 35.117C200.724 35.8936 199.615 36.7222 198.313 36.8377C197.012 36.9532 195.525 35.995 195.623 34.6987L195.261 34.7037Z" fill="#2F2E41"/>
<path d="M151.64 116.149C150.561 116.447 149.408 116.341 148.402 115.851C147.395 115.361 146.605 114.52 146.18 113.489C145.755 112.457 145.725 111.307 146.095 110.255C146.466 109.203 147.212 108.322 148.192 107.781L157.908 96.8152L166.126 98.5815L154.567 109.844C154.852 110.443 155 111.096 155.003 111.758C155.006 112.42 154.863 113.075 154.584 113.676C154.305 114.277 153.896 114.81 153.388 115.238C152.879 115.665 152.283 115.976 151.64 116.149H151.64Z" fill="#FFB7B7"/>
<path d="M183.607 76.8908L159.39 107.131L152.008 103.759L180.473 59.6752L183.607 76.8908Z" fill="#660188"/>
<path d="M164.284 168.202L158.513 168.112L159.207 187.681H164.283L164.284 168.202Z" fill="#FFB7B7"/>
<path d="M165.578 186.033L155.58 186.032H155.58C153.89 186.032 152.27 186.7 151.075 187.889C149.88 189.077 149.209 190.689 149.209 192.37V192.576L165.578 192.577L165.578 186.033Z" fill="#2F2E41"/>
<path d="M202.498 163.012L196.193 167.039L208.805 182.132L213.077 179.404L202.498 163.012Z" fill="#FFB7B7"/>
<path d="M213.271 177.32L204.858 182.694L204.858 182.694C203.436 183.602 202.435 185.035 202.075 186.677C201.715 188.32 202.026 190.037 202.939 191.451L203.05 191.625L216.825 182.827L213.271 177.32Z" fill="#2F2E41"/>
<path d="M204.744 103.257C204.744 103.257 190.736 56.9716 186.234 56.3461C181.732 55.7207 174.478 68.2223 174.478 68.2223C165.073 80.1592 155.375 118.825 155.375 118.825C155.375 118.825 171.542 119.832 183.36 126.086C195.178 132.341 209.124 125.77 209.124 125.77L204.744 103.257Z" fill="#660188"/>
<path opacity="0.1" d="M204.744 103.257C204.744 103.257 190.736 56.9716 186.234 56.3461C181.732 55.7206 176.32 68.3492 176.32 68.3492C171.634 87.6181 155.375 118.825 155.375 118.825C155.375 118.825 171.542 119.832 183.36 126.086C195.178 132.341 209.124 125.77 209.124 125.77L204.744 103.257Z" fill="black"/>
<path d="M193.251 89.4084V112.666L196.003 146.357L209.749 171.842L203.188 176.504L184.443 152.262L177.029 128.192L165.386 181.476L156.638 180.855L162.713 106.977L174.242 86.1818L193.251 89.4084Z" fill="#827ECA"/>
<path d="M179.127 66.9128C174.753 71.2638 178.815 75.9257 178.815 75.9257L173.816 87.1141L193.498 92.3975L200.376 61.8226L195.69 56.85C186.318 56.5392 186.313 56.3459 186.313 56.3459C184.67 57.9446 179.127 66.9128 179.127 66.9128Z" fill="#6C63FF"/>
<path d="M201.169 58.6551C200.275 57.9986 199.259 57.5252 198.18 57.2621C197.101 56.9991 195.98 56.9516 194.882 57.1225C193.785 57.2935 192.732 57.6794 191.785 58.2579C190.838 58.8364 190.016 59.596 189.367 60.4928C184.419 67.3464 179.844 78.4132 186.147 92.2156C196.269 114.378 205.078 125.723 208.659 125.722C208.815 125.723 208.971 125.699 209.119 125.65C211.323 124.906 214.51 121.196 215.087 117.926C215.294 116.756 215.244 115.126 213.837 114.006C209.796 110.791 202.541 100.779 200.278 87.6005C199.027 80.3188 201.453 73.6858 203.708 69.4038C204.66 67.6321 204.939 65.5782 204.492 63.6186C204.046 61.659 202.905 59.9251 201.278 58.7347L201.169 58.6551Z" fill="#660188"/>
<path d="M194.936 51.1134C198.948 48.9316 200.422 43.9275 198.229 39.9363C196.036 35.9451 191.006 34.4783 186.994 36.6601C182.981 38.8419 181.507 43.846 183.7 47.8372C185.893 51.8284 190.924 53.2952 194.936 51.1134Z" fill="#FFB7B7"/>
<path d="M179.321 43.264H191.276L191.399 41.5566L192.012 43.264H193.853L194.095 39.88L195.31 43.264H198.872V43.0964C198.869 40.7405 197.927 38.4818 196.253 36.8159C194.578 35.15 192.308 34.2129 189.939 34.2103H188.254C185.886 34.2129 183.615 35.15 181.941 36.8159C180.266 38.4818 179.324 40.7405 179.321 43.0964V43.264Z" fill="#2F2E41"/>
<path d="M197.066 49.4012L202.168 47.7545V35.4299H192.531L192.77 35.6669C196.089 38.9646 199.781 50.6647 197.066 49.4012Z" fill="#2F2E41"/>
</g>
<defs>
<clipPath id="clip0">
<rect width="255" height="193" fill="white"/>
</clipPath>
</defs>
</svg>
