<svg width="66" height="67" viewBox="0 0 66 67" fill="none" xmlns="http://www.w3.org/2000/svg">
<path fill-rule="evenodd" clip-rule="evenodd" d="M9.67236 10.4895C15.5581 4.60394 23.6975 0.958336 32.6828 0.958336C41.668 0.958336 49.8075 4.60393 55.6932 10.4896C61.5788 16.3753 65.2244 24.5147 65.2244 33.5C65.2244 42.4853 61.5788 50.6247 55.6932 56.5104C49.8075 62.396 41.668 66.0417 32.6828 66.0417C23.6975 66.0417 15.5581 62.396 9.67235 56.5104C3.78673 50.6247 0.141113 42.4852 0.141113 33.5C0.141113 24.5147 3.78675 16.3753 9.67236 10.4895ZM49.5663 26.7169C50.7216 25.5616 50.7216 23.6884 49.5663 22.5331C48.411 21.3778 46.5379 21.3778 45.3826 22.5331L29.7244 38.1913L22.9413 31.4081C21.786 30.2528 19.9129 30.2528 18.7576 31.4081C17.6023 32.5634 17.6023 34.4366 18.7576 35.5919L27.6326 44.4669C28.7879 45.6222 30.661 45.6222 31.8163 44.4669L49.5663 26.7169Z" fill="#20CE88"/>
</svg>
