<svg width="238" height="158" viewBox="0 0 238 158" fill="none" xmlns="http://www.w3.org/2000/svg">
<g clip-path="url(#clip0_1113_2891)">
<path d="M85.3707 90.9305C93.527 76.5978 109.085 65.5927 125.555 66.6529C113.406 79.85 106.322 96.9142 105.556 114.827C105.286 121.736 105.705 129.448 101.113 134.622C98.2554 137.841 93.8878 139.4 89.5935 139.727C85.299 140.054 81.0055 139.279 76.7684 138.507L75.7406 138.822C75.3493 122.34 77.2144 105.263 85.3707 90.9305Z" fill="#20CE88"/>
<path d="M125.58 66.9979C113.4 72.8548 103.015 82.6364 96.6404 94.5658C95.2621 97.1449 94.0887 99.881 93.5768 102.774C93.0647 105.668 93.4224 108.423 94.412 111.172C95.3167 113.685 96.5334 116.151 96.8108 118.84C97.1032 121.675 96.0593 124.325 94.18 126.428C91.8808 129.001 88.793 130.596 85.7191 132.051C82.3061 133.666 78.7355 135.289 76.3182 138.304C76.0253 138.669 75.4751 138.194 75.7675 137.829C79.9733 132.585 87.1725 131.599 92.1647 127.374C94.4942 125.403 96.2431 122.718 96.1327 119.573C96.0362 116.822 94.7837 114.278 93.8457 111.741C92.8607 109.078 92.3695 106.4 92.7227 103.56C93.0841 100.655 94.1529 97.8675 95.4591 95.2646C98.4049 89.3942 102.436 84.0047 107.055 79.3458C112.362 73.9906 118.548 69.5819 125.344 66.3103C125.765 66.108 125.998 66.7969 125.58 66.9979Z" fill="white"/>
<path d="M98.5078 90.579C96.6407 89.2152 95.3197 87.2328 94.7806 84.9859C94.2416 82.739 94.5197 80.3739 95.5652 78.3128C95.7782 77.8965 96.4358 78.2076 96.2225 78.6244C95.2454 80.5419 94.9866 82.745 95.4928 84.8363C95.999 86.9276 97.2369 88.7693 98.9831 90.0289C99.3622 90.3031 98.8848 90.8516 98.5078 90.579Z" fill="white"/>
<path d="M93.7853 109.958C98.4638 109.275 102.713 106.856 105.685 103.183C105.979 102.819 106.529 103.294 106.236 103.658C103.136 107.474 98.7087 109.983 93.8385 110.683C93.3743 110.749 93.3235 110.024 93.7853 109.958V109.958Z" fill="white"/>
<path d="M112.722 74.8848C113.334 75.5628 114.105 76.0783 114.967 76.385C115.828 76.6917 116.751 76.7799 117.655 76.6417C118.118 76.5695 118.169 77.2946 117.708 77.3664C116.709 77.5144 115.689 77.4157 114.737 77.079C113.785 76.7423 112.93 76.1778 112.246 75.4348C112.176 75.3702 112.133 75.2812 112.126 75.1861C112.119 75.0909 112.149 74.9966 112.209 74.9224C112.272 74.8499 112.361 74.8053 112.457 74.7982C112.554 74.7912 112.648 74.8223 112.722 74.8848Z" fill="white"/>
<path d="M158.325 111.867C158.037 111.92 157.749 111.974 157.459 112.033C153.591 112.77 149.79 113.819 146.093 115.171C145.806 115.271 145.516 115.377 145.232 115.485C136.359 118.836 128.187 123.804 121.13 130.136C118.324 132.658 115.715 135.39 113.324 138.308C110.022 142.338 106.763 146.969 102.449 149.597C102.002 149.876 101.538 150.127 101.06 150.349L76.2053 140.05C76.1605 139.999 76.1132 139.953 76.0682 139.901L75.057 139.535C75.1698 139.376 75.2902 139.213 75.403 139.054C75.468 138.962 75.5386 138.871 75.6036 138.779C75.6488 138.718 75.6942 138.657 75.7314 138.599C75.7463 138.579 75.7616 138.559 75.7742 138.544C75.8114 138.486 75.8521 138.437 75.8869 138.385C76.5574 137.474 77.2355 136.567 77.9211 135.663C77.9235 135.657 77.9235 135.657 77.9314 135.653C83.1733 128.776 89.0359 122.276 95.6999 116.871C95.9005 116.708 96.1031 116.54 96.315 116.382C99.3323 113.962 102.543 111.793 105.914 109.896C107.763 108.863 109.663 107.924 111.608 107.083C116.636 104.92 121.973 103.56 127.424 103.054C138.291 102.046 149.359 104.52 157.693 111.34C157.906 111.514 158.114 111.687 158.325 111.867Z" fill="#20CE88"/>
<path d="M158.138 112.159C144.884 109.51 130.697 111.075 118.417 116.765C115.762 117.996 113.176 119.475 111.023 121.477C108.87 123.48 107.495 125.895 106.628 128.685C105.836 131.235 105.321 133.936 103.922 136.25C102.447 138.689 100.017 140.177 97.2485 140.726C93.8616 141.398 90.435 140.814 87.104 140.127C83.4055 139.364 79.576 138.512 75.8291 139.465C75.3751 139.581 75.2223 138.87 75.6756 138.755C82.1946 137.097 88.5369 140.64 95.0692 140.269C98.1173 140.096 101.132 139.005 102.939 136.427C104.52 134.172 105.053 131.388 105.833 128.798C106.652 126.079 107.874 123.646 109.868 121.591C111.907 119.489 114.44 117.906 117.052 116.613C122.942 113.698 129.41 111.819 135.905 110.877C143.37 109.793 150.967 109.993 158.365 111.468C158.822 111.56 158.593 112.25 158.138 112.159V112.159Z" fill="white"/>
<path d="M122.31 114.705C121.642 112.493 121.782 110.116 122.705 107.998C123.629 105.88 125.277 104.159 127.354 103.142C127.775 102.937 128.112 103.581 127.691 103.786C125.755 104.729 124.22 106.333 123.364 108.307C122.508 110.281 122.386 112.496 123.021 114.552C123.159 114.999 122.447 115.15 122.31 114.705Z" fill="white"/>
<path d="M106.86 127.338C111.007 129.607 115.857 130.231 120.445 129.085C120.899 128.972 121.052 129.682 120.598 129.796C115.822 130.979 110.776 130.319 106.465 127.949C106.055 127.723 106.451 127.113 106.86 127.338Z" fill="white"/>
<path d="M143.118 110.723C143.199 111.633 143.504 112.508 144.007 113.271C144.509 114.034 145.194 114.66 145.999 115.093C146.412 115.314 146.015 115.923 145.604 115.704C144.717 115.221 143.962 114.529 143.405 113.687C142.848 112.846 142.505 111.881 142.407 110.876C142.39 110.783 142.41 110.686 142.461 110.605C142.513 110.525 142.593 110.468 142.686 110.445C142.78 110.425 142.879 110.443 142.96 110.495C143.041 110.547 143.098 110.629 143.118 110.723Z" fill="white"/>
<path d="M110.979 128.857C107.498 112.045 103.147 106.44 103.147 106.44L101.485 105.152L99.486 103.601L99.4956 103.401L99.0215 103.241L98.9102 103.154L98.7276 103.014L98.6983 103.046L98.6363 103.11L89.591 100.038L78.1154 96.1445L72.8015 89.2448C71.9361 88.1211 70.8219 87.2128 69.5462 86.5913C68.2706 85.9697 66.8682 85.6517 65.4489 85.6622L48.478 85.7877C46.1833 85.8046 43.978 86.6785 42.2956 88.2374L31.1409 98.5732L13.7597 106.866L13.7304 106.836L13.5478 106.967L10.8623 108.249L10.9731 108.826L9.31091 110.024C9.31091 110.024 4.95992 115.239 1.47911 130.883C0.593631 134.864 0.157766 143.402 0.000442113 153.924C-0.00746025 154.456 0.0906439 154.985 0.289048 155.479C0.487452 155.973 0.782199 156.423 1.15615 156.802C1.5301 157.181 1.97579 157.483 2.46732 157.688C2.95884 157.894 3.48639 158 4.01928 158H96.8557V158H108.443C108.975 158 109.503 157.894 109.994 157.688C110.485 157.483 110.93 157.182 111.304 156.803C111.678 156.425 111.973 155.975 112.172 155.482C112.37 154.988 112.469 154.46 112.462 153.928C112.308 142.479 111.872 133.174 110.979 128.857Z" fill="#686866"/>
<path d="M122.89 14.6617C119.278 14.6617 115.814 16.095 113.26 18.6463C110.706 21.1976 109.272 24.6579 109.272 28.2659C109.272 31.874 110.706 35.3343 113.26 37.8855C115.814 40.4368 119.278 41.8701 122.89 41.8701H224.381C227.993 41.8701 231.457 40.4368 234.011 37.8855C236.565 35.3343 238 31.874 238 28.2659C238 24.6579 236.565 21.1976 234.011 18.6463C231.457 16.095 227.993 14.6617 224.381 14.6617H122.89Z" fill="#E5E5E5"/>
<path d="M122.89 17.415C120.009 17.415 117.246 18.5583 115.209 20.5932C113.172 22.6282 112.028 25.3881 112.028 28.266C112.028 31.1439 113.172 33.9038 115.209 35.9388C117.246 37.9737 120.009 39.117 122.89 39.117H224.381C227.262 39.117 230.025 37.9737 232.062 35.9388C234.099 33.9038 235.244 31.1439 235.244 28.266C235.244 25.3881 234.099 22.6282 232.062 20.5932C230.025 18.5583 227.262 17.415 224.381 17.415H122.89Z" fill="white"/>
<path d="M59.6286 79.2934C71.9079 79.2934 81.8622 69.3497 81.8622 57.0834C81.8622 44.8172 71.9079 34.8734 59.6286 34.8734C47.3494 34.8734 37.3951 44.8172 37.3951 57.0834C37.3951 69.3497 47.3494 79.2934 59.6286 79.2934Z" fill="#9E616A"/>
<path d="M53.9408 78.2059C53.8459 77.997 53.7511 77.7874 53.6567 77.577C53.6931 77.5782 53.7291 77.5834 53.7655 77.5844L53.9408 78.2059Z" fill="#2F2E41"/>
<path d="M36.7768 35.8834C37.9013 34.9873 39.2155 34.1628 40.6533 34.2091C42.091 34.2554 43.5489 35.5526 43.2511 36.9584C45.8919 32.2876 50.0952 28.6952 55.1233 26.8118C60.1514 24.9284 65.6829 24.8743 70.747 26.6591C74.3203 27.9184 77.8245 30.4379 78.6453 34.1332C78.856 35.0818 78.9013 36.1219 79.4942 36.8922C80.2417 37.8634 81.6721 38.0831 82.8498 37.7414C82.8616 37.738 82.8734 37.7345 82.8851 37.731C83.0841 37.6632 83.2988 37.6565 83.5016 37.7119C83.7044 37.7673 83.8859 37.8822 84.0227 38.0417C84.1594 38.2013 84.245 38.3981 84.2685 38.6068C84.292 38.8155 84.2523 39.0265 84.1544 39.2124L83.1434 41.096C84.4179 41.3798 85.7422 41.3517 87.0035 41.014C87.213 40.9591 87.4344 40.9703 87.6373 41.0461C87.8402 41.1219 88.0146 41.2585 88.1367 41.4372C88.2588 41.616 88.3226 41.828 88.3192 42.0444C88.3159 42.2608 88.2456 42.4708 88.118 42.6457C84.7842 47.218 79.2144 50.1706 73.5305 50.1359C69.4908 50.1113 65.4095 48.7205 61.4779 49.6485C59.9569 50.0075 58.5357 50.7021 57.3185 51.6814C56.1013 52.6606 55.1191 53.8997 54.4438 55.3076C53.7685 56.7156 53.4173 58.2567 53.416 59.8179C53.4147 61.3791 53.7633 62.9207 54.4363 64.3298C53.2285 63.0101 50.8937 63.3225 49.6582 64.6165C48.4228 65.9104 48.1029 67.8416 48.2274 69.6254C48.4178 72.3536 49.4878 74.9244 50.6159 77.4264C41.158 77.129 32.2124 70.5015 29.2013 61.5376C26.1775 52.5361 29.3465 41.8045 36.7768 35.8834Z" fill="#3F3D56"/>
<path opacity="0.2" d="M21.8836 123.781L28.1196 157.675L31.8613 158L21.8836 123.781Z" fill="black"/>
<path opacity="0.2" d="M90.5745 121.225L84.3385 157.65L80.5967 158L90.5745 121.225Z" fill="black"/>
<path d="M42.0956 24.4767C40.8999 24.9755 39.6523 24.4289 39.129 23.1772C38.5978 21.9063 39.094 20.6162 40.3088 20.1095C41.5238 19.6027 42.7492 20.1506 43.289 21.442C43.8207 22.714 43.3299 23.9619 42.0956 24.4767ZM39.8052 17.608L38.8545 18.0046C38.617 18.1025 38.3514 18.1077 38.1102 18.0194C37.8689 17.931 37.6697 17.7554 37.5519 17.5273L37.5049 17.4354C36.482 15.5926 36.3648 13.3528 37.1586 10.7819C37.894 8.47568 38.1994 6.85371 37.5852 5.3843C36.875 3.68538 35.3585 3.15319 33.4247 3.92413C32.6747 4.23698 32.436 4.23199 31.8458 4.8169C31.7174 4.94567 31.5644 5.04731 31.3958 5.11573C31.2272 5.18415 31.0466 5.21797 30.8647 5.21516C30.6888 5.21309 30.5152 5.17566 30.3541 5.10511C30.193 5.03456 30.0478 4.93233 29.9272 4.80451C29.6947 4.55819 29.5644 4.23292 29.5627 3.89439C29.561 3.55586 29.688 3.2293 29.918 2.98064C30.91 1.94322 32.1066 1.12249 33.4322 0.570233C37.5872 -1.16289 39.6788 1.39582 40.636 3.68563C41.5722 5.92532 41.0455 8.00339 40.1993 10.6947C39.4902 12.931 39.5315 14.5881 40.337 16.2357C40.3952 16.3603 40.4276 16.4953 40.4322 16.6327C40.4368 16.77 40.4135 16.9069 40.3639 17.0351C40.3142 17.1632 40.2391 17.2801 40.1431 17.3785C40.0471 17.477 39.9322 17.555 39.8052 17.608L39.8052 17.608Z" fill="#BC31EA"/>
<path d="M145.308 34.7542H125.115C125.051 34.7546 124.988 34.7424 124.928 34.7182C124.869 34.694 124.815 34.6582 124.769 34.6131C124.724 34.5679 124.688 34.5142 124.663 34.455C124.638 34.3959 124.626 34.3324 124.626 34.2683C124.626 34.2043 124.638 34.1408 124.663 34.0816C124.688 34.0225 124.724 33.9688 124.769 33.9236C124.815 33.8785 124.869 33.8427 124.928 33.8185C124.988 33.7943 125.051 33.782 125.115 33.7825H145.308C145.437 33.7834 145.56 33.8349 145.65 33.9259C145.741 34.017 145.791 34.1401 145.791 34.2683C145.791 34.3966 145.741 34.5197 145.65 34.6107C145.56 34.7018 145.437 34.7533 145.308 34.7542Z" fill="#6C63FF"/>
<path d="M170.924 34.9162H150.731C150.667 34.9166 150.604 34.9044 150.544 34.8802C150.485 34.8559 150.431 34.8202 150.385 34.7751C150.34 34.7299 150.304 34.6762 150.279 34.617C150.254 34.5579 150.242 34.4944 150.242 34.4303C150.242 34.3663 150.254 34.3028 150.279 34.2436C150.304 34.1845 150.34 34.1308 150.385 34.0856C150.431 34.0404 150.485 34.0047 150.544 33.9805C150.604 33.9563 150.667 33.944 150.731 33.9445H170.924C170.988 33.944 171.052 33.9563 171.111 33.9805C171.171 34.0047 171.225 34.0404 171.27 34.0856C171.316 34.1308 171.352 34.1845 171.377 34.2436C171.401 34.3028 171.414 34.3663 171.414 34.4303C171.414 34.4944 171.401 34.5579 171.377 34.617C171.352 34.6762 171.316 34.7299 171.27 34.7751C171.225 34.8202 171.171 34.8559 171.111 34.8802C171.052 34.9044 170.988 34.9166 170.924 34.9162Z" fill="#6C63FF"/>
<path d="M196.54 35.0782H176.347C176.219 35.0773 176.096 35.0257 176.006 34.9347C175.915 34.8437 175.864 34.7206 175.864 34.5923C175.864 34.464 175.915 34.3409 176.006 34.2499C176.096 34.1589 176.219 34.1073 176.347 34.1065H196.54C196.604 34.106 196.668 34.1183 196.727 34.1425C196.787 34.1667 196.841 34.2024 196.886 34.2476C196.932 34.2927 196.968 34.3465 196.993 34.4056C197.017 34.4648 197.03 34.5282 197.03 34.5923C197.03 34.6564 197.017 34.7199 196.993 34.779C196.968 34.8382 196.932 34.8919 196.886 34.9371C196.841 34.9822 196.787 35.0179 196.727 35.0422C196.668 35.0664 196.604 35.0786 196.54 35.0782H196.54Z" fill="#6C63FF"/>
<path d="M222.156 35.2402H201.963C201.835 35.2393 201.712 35.1877 201.622 35.0967C201.531 35.0057 201.48 34.8826 201.48 34.7543C201.48 34.626 201.531 34.5029 201.622 34.4119C201.712 34.3209 201.835 34.2693 201.963 34.2684H222.156C222.285 34.2693 222.408 34.3209 222.498 34.4119C222.589 34.5029 222.639 34.626 222.639 34.7543C222.639 34.8826 222.589 35.0057 222.498 35.0967C222.408 35.1877 222.285 35.2393 222.156 35.2402Z" fill="#6C63FF"/>
<path d="M135.167 30.2827C137.24 30.2827 138.92 28.6042 138.92 26.5337C138.92 24.4632 137.24 22.7847 135.167 22.7847C133.095 22.7847 131.414 24.4632 131.414 26.5337C131.414 28.6042 133.095 30.2827 135.167 30.2827Z" fill="#6C63FF"/>
<path d="M160.938 30.2827C163.011 30.2827 164.691 28.6042 164.691 26.5337C164.691 24.4632 163.011 22.7847 160.938 22.7847C158.865 22.7847 157.185 24.4632 157.185 26.5337C157.185 28.6042 158.865 30.2827 160.938 30.2827Z" fill="#6C63FF"/>
<path d="M186.709 30.2827C188.782 30.2827 190.462 28.6042 190.462 26.5337C190.462 24.4632 188.782 22.7847 186.709 22.7847C184.636 22.7847 182.956 24.4632 182.956 26.5337C182.956 28.6042 184.636 30.2827 186.709 30.2827Z" fill="#6C63FF"/>
<path d="M212.48 30.2827C214.552 30.2827 216.233 28.6042 216.233 26.5337C216.233 24.4632 214.552 22.7847 212.48 22.7847C210.407 22.7847 208.727 24.4632 208.727 26.5337C208.727 28.6042 210.407 30.2827 212.48 30.2827Z" fill="#6C63FF"/>
</g>
<defs>
<clipPath id="clip0_1113_2891">
<rect width="238" height="158" fill="white"/>
</clipPath>
</defs>
</svg>
