<svg width="113" height="102" viewBox="0 0 113 102" fill="none" xmlns="http://www.w3.org/2000/svg">
<g clip-path="url(#clip0_1901_2268)">
<path d="M112.009 39.0069C111.968 39.0069 111.929 38.9944 111.895 38.9711L57.0689 74.3923C56.9021 74.276 56.7038 74.2139 56.5008 74.2142C56.2978 74.2146 56.0997 74.2774 55.9333 74.3943L1.5016 38.9707C1.45855 39.0011 1.40526 39.013 1.35346 39.0039C1.30167 38.9948 1.2556 38.9653 1.22541 38.922C1.19521 38.8787 1.18335 38.8251 1.19244 38.7731C1.20153 38.721 1.23082 38.6746 1.27388 38.6443L55.7056 0.252003C55.9386 0.0884106 56.2159 0.000471576 56.5001 1.8913e-06C56.7844 -0.000467793 57.0619 0.0865536 57.2955 0.249375L112.122 38.6439C112.157 38.6682 112.183 38.7029 112.196 38.7431C112.21 38.7833 112.211 38.8268 112.198 38.8673C112.185 38.9078 112.16 38.9431 112.126 38.9682C112.092 38.9933 112.051 39.0069 112.009 39.0069Z" fill="white"/>
<path d="M4.612 40.3678L56.5547 1.65833L108.892 43.1222L59.231 72.7249L32.2696 66.5452L4.612 40.3678Z" fill="#E6E6E6"/>
<path d="M34.5454 91.0093H8.88443C8.72686 91.0095 8.5708 90.9785 8.42517 90.918C8.27954 90.8575 8.14719 90.7687 8.03571 90.6568C7.92422 90.5448 7.83578 90.4118 7.77543 90.2655C7.71509 90.1191 7.68402 89.9622 7.68402 89.8038C7.68402 89.6453 7.71509 89.4885 7.77543 89.3421C7.83578 89.1957 7.92422 89.0628 8.03571 88.9508C8.14719 88.8388 8.27954 88.7501 8.42517 88.6896C8.5708 88.6291 8.72686 88.5981 8.88443 88.5983H34.5454C34.703 88.5981 34.859 88.6291 35.0047 88.6896C35.1503 88.7501 35.2826 88.8388 35.3941 88.9508C35.5056 89.0628 35.5941 89.1957 35.6544 89.3421C35.7148 89.4885 35.7458 89.6453 35.7458 89.8038C35.7458 89.9622 35.7148 90.1191 35.6544 90.2655C35.5941 90.4118 35.5056 90.5448 35.3941 90.6568C35.2826 90.7687 35.1503 90.8575 35.0047 90.918C34.859 90.9785 34.703 91.0095 34.5454 91.0093V91.0093Z" fill="#6C63FF"/>
<path d="M18.091 85.8263H8.88443C8.72686 85.8265 8.5708 85.7955 8.42517 85.735C8.27954 85.6745 8.14719 85.5857 8.03571 85.4738C7.92422 85.3618 7.83578 85.2289 7.77543 85.0825C7.71509 84.9361 7.68402 84.7792 7.68402 84.6208C7.68402 84.4624 7.71509 84.3055 7.77543 84.1591C7.83578 84.0127 7.92422 83.8798 8.03571 83.7678C8.14719 83.6559 8.27954 83.5671 8.42517 83.5066C8.5708 83.4461 8.72686 83.4151 8.88443 83.4153H18.091C18.2486 83.4151 18.4046 83.4461 18.5503 83.5066C18.6959 83.5671 18.8282 83.6559 18.9397 83.7678C19.0512 83.8798 19.1397 84.0127 19.2 84.1591C19.2604 84.3055 19.2914 84.4624 19.2914 84.6208C19.2914 84.7792 19.2604 84.9361 19.2 85.0825C19.1397 85.2289 19.0512 85.3618 18.9397 85.4738C18.8282 85.5857 18.6959 85.6745 18.5503 85.735C18.4046 85.7955 18.2486 85.8265 18.091 85.8263Z" fill="#6C63FF"/>
<path d="M57.2851 61.9285C57.0901 61.9287 56.8969 61.8907 56.7163 61.8165L24.6816 48.4506V6.61319C24.6821 6.24324 24.8284 5.88856 25.0886 5.62696C25.3487 5.36536 25.7014 5.2182 26.0694 5.21777H87.5255C87.8934 5.21821 88.2461 5.36536 88.5063 5.62696C88.7664 5.88856 88.9128 6.24324 88.9132 6.61319V48.4798L88.853 48.5057L57.8711 61.8099C57.6856 61.8883 57.4863 61.9287 57.2851 61.9285Z" fill="white"/>
<path d="M57.2851 62.0282C57.0771 62.0284 56.8711 61.9879 56.6786 61.9088L24.5825 48.5172V6.61325C24.583 6.21687 24.7398 5.83685 25.0185 5.55656C25.2972 5.27628 25.6752 5.11861 26.0694 5.11816H87.5255C87.9197 5.11861 88.2976 5.27628 88.5764 5.55656C88.8551 5.83685 89.0119 6.21687 89.0124 6.61325V48.5457L57.91 61.9016C57.7122 61.9853 57.4997 62.0283 57.2851 62.0282V62.0282ZM24.979 48.2509L56.8298 61.5402C57.1268 61.6614 57.4596 61.6594 57.7552 61.5347L88.6159 48.2825V6.61325C88.6155 6.32258 88.5006 6.0439 88.2961 5.83836C88.0917 5.63282 87.8146 5.5172 87.5255 5.51685H26.0694C25.7803 5.5172 25.5032 5.63282 25.2988 5.83836C25.0943 6.0439 24.9794 6.32258 24.979 6.61325L24.979 48.2509Z" fill="#3F3D56"/>
<path d="M111.612 38.6082H111.573L88.814 48.3801L57.6756 61.7502C57.554 61.8016 57.4234 61.8285 57.2914 61.8292C57.1594 61.8298 57.0286 61.8044 56.9064 61.7542L24.7807 48.3522L1.46303 38.6241L1.42741 38.6082H1.38772C1.0198 38.6086 0.667063 38.7557 0.406903 39.0173C0.146744 39.2789 0.000408237 39.6336 0 40.0036V100.605C0.000408761 100.975 0.146744 101.329 0.406903 101.591C0.667063 101.852 1.0198 102 1.38772 102H111.612C111.98 102 112.333 101.852 112.593 101.591C112.853 101.329 113 100.975 113 100.605V40.0036C113 39.6336 112.853 39.2789 112.593 39.0173C112.333 38.7557 111.98 38.6086 111.612 38.6082Z" fill="white"/>
<path d="M41.0003 15.0618L56.4987 30.977" stroke="#FF0000" stroke-width="10" stroke-linecap="round"/>
<path d="M71.9974 15L56.4987 30.9142" stroke="#FF0000" stroke-width="10" stroke-linecap="round"/>
<path d="M41 45.9398L56.4986 30.0259" stroke="#FF0000" stroke-width="10" stroke-linecap="round"/>
<path d="M72 46L56.4987 30.0861" stroke="#FF0000" stroke-width="10" stroke-linecap="round"/>
</g>
<defs>
<clipPath id="clip0_1901_2268">
<rect width="113" height="102" fill="white"/>
</clipPath>
</defs>
</svg>
