<svg width="277" height="181" viewBox="0 0 277 181" fill="none" xmlns="http://www.w3.org/2000/svg">
<path d="M163.561 11.946H132.948V12.5288H163.561V11.946Z" fill="#CCCCCC"/>
<path d="M109.04 11.946H11.9535V12.5288H109.04V11.946Z" fill="#CCCCCC"/>
<path d="M11.9535 24.1832C18.5553 24.1832 23.907 18.8348 23.907 12.2372C23.907 5.63966 18.5553 0.29126 11.9535 0.29126C5.35177 0.29126 0 5.63966 0 12.2372C0 18.8348 5.35177 24.1832 11.9535 24.1832Z" fill="#20CE88"/>
<path d="M66.4737 24.1832C73.0754 24.1832 78.4272 18.8348 78.4272 12.2372C78.4272 5.63966 73.0754 0.29126 66.4737 0.29126C59.8719 0.29126 54.5202 5.63966 54.5202 12.2372C54.5202 18.8348 59.8719 24.1832 66.4737 24.1832Z" fill="#BC31EA"/>
<path d="M120.993 24.4751C118.571 24.4751 116.203 23.7574 114.19 22.4127C112.176 21.068 110.606 19.1568 109.679 16.9207C108.753 14.6846 108.51 12.224 108.983 9.85013C109.455 7.47628 110.621 5.29575 112.334 3.5843C114.046 1.87285 116.228 0.707336 118.604 0.235148C120.979 -0.237041 123.441 0.00529985 125.679 0.931532C127.916 1.85776 129.829 3.42628 131.174 5.43874C132.52 7.45119 133.238 9.8172 133.238 12.2376C133.238 15.4832 131.948 18.5958 129.651 20.8908C127.355 23.1858 124.24 24.4751 120.993 24.4751ZM120.993 0.582822C118.686 0.582822 116.431 1.26636 114.514 2.547C112.596 3.82764 111.101 5.64786 110.218 7.77749C109.336 9.90711 109.105 12.2505 109.555 14.5113C110.005 16.7721 111.115 18.8488 112.746 20.4787C114.377 22.1086 116.455 23.2187 118.717 23.6684C120.98 24.1181 123.325 23.8873 125.455 23.0051C127.586 22.123 129.408 20.6292 130.689 18.7126C131.971 16.796 132.655 14.5426 132.655 12.2376C132.655 9.14653 131.426 6.18211 129.239 3.99642C127.052 1.81073 124.086 0.582822 120.993 0.582822Z" fill="#CCCCCC"/>
<path d="M175.513 24.4751C173.091 24.4751 170.723 23.7574 168.71 22.4127C166.696 21.068 165.127 19.1568 164.2 16.9207C163.273 14.6846 163.03 12.224 163.503 9.85013C163.975 7.47628 165.142 5.29575 166.854 3.5843C168.567 1.87285 170.749 0.707336 173.124 0.235148C175.499 -0.237041 177.961 0.00529985 180.199 0.931532C182.436 1.85776 184.349 3.42628 185.694 5.43874C187.04 7.45119 187.758 9.8172 187.758 12.2376C187.758 15.4832 186.468 18.5958 184.172 20.8908C181.875 23.1858 178.761 24.4751 175.513 24.4751ZM175.513 0.582822C173.206 0.582822 170.952 1.26636 169.034 2.547C167.116 3.82764 165.621 5.64786 164.739 7.77749C163.856 9.90711 163.625 12.2505 164.075 14.5113C164.525 16.7721 165.636 18.8488 167.267 20.4787C168.897 22.1086 170.975 23.2187 173.238 23.6684C175.5 24.1181 177.845 23.8873 179.976 23.0051C182.107 22.123 183.928 20.6292 185.21 18.7126C186.491 16.796 187.175 14.5426 187.175 12.2376C187.175 10.707 186.873 9.19151 186.287 7.77749C185.701 6.36347 184.842 5.07866 183.759 3.99642C182.676 2.91418 181.391 2.05569 179.976 1.46999C178.561 0.88428 177.044 0.582822 175.513 0.582822Z" fill="#CCCCCC"/>
<path d="M11.0333 15.7991C10.8233 15.7993 10.619 15.7312 10.4511 15.6052L10.4407 15.5974L8.24675 13.9204C8.04156 13.7632 7.90726 13.5309 7.87341 13.2748C7.83957 13.0186 7.90893 12.7594 8.06626 12.5544C8.22359 12.3493 8.45599 12.2151 8.71234 12.1813C8.96868 12.1474 9.22798 12.2168 9.43318 12.374L10.8541 13.463L14.2119 9.08494C14.3691 8.87998 14.6014 8.74583 14.8576 8.71201C15.1138 8.67818 15.373 8.74745 15.5781 8.90457L15.5574 8.93334L15.5788 8.90457C15.7837 9.06194 15.9178 9.29414 15.9515 9.55019C15.9853 9.80625 15.916 10.0652 15.7589 10.2703L11.8093 15.4174C11.7178 15.5361 11.6001 15.6321 11.4655 15.6979C11.3309 15.7638 11.1829 15.7978 11.033 15.7972L11.0333 15.7991Z" fill="white"/>
<path d="M212.373 63.3438C212.596 63.4459 212.811 63.5656 213.015 63.702L233.443 54.9891L234.171 49.6116L242.334 49.5615L241.851 61.896L214.889 69.0227C214.832 69.2098 214.764 69.3933 214.685 69.5722C214.295 70.4035 213.668 71.101 212.883 71.5774C212.098 72.0537 211.189 72.2875 210.271 72.2495C209.354 72.2115 208.468 71.9033 207.724 71.3636C206.981 70.8239 206.414 70.0769 206.095 69.2162C205.775 68.3556 205.717 67.4197 205.928 66.5262C206.138 65.6327 206.609 64.8213 207.279 64.194C207.95 63.5667 208.791 63.1514 209.697 63.0003C210.604 62.8493 211.534 62.9691 212.372 63.3448L212.373 63.3438Z" fill="#FEB8B8"/>
<path d="M245.302 175.111H239.718L237.062 153.588H245.303L245.302 175.111Z" fill="#FEB8B8"/>
<path d="M235.73 173.516H246.498V180.29H228.95C228.95 178.493 229.664 176.77 230.936 175.499C232.207 174.228 233.932 173.514 235.73 173.514V173.516Z" fill="#2F2E41"/>
<path d="M267.017 173.534L261.461 174.081L256.706 152.921L264.907 152.116L267.017 173.534Z" fill="#FEB8B8"/>
<path d="M257.332 172.886L268.047 171.832L268.711 178.574L251.251 180.292C251.074 178.504 251.616 176.72 252.756 175.331C253.897 173.942 255.542 173.063 257.332 172.886H257.332Z" fill="#2F2E41"/>
<path d="M246.856 26.7825C253.034 26.7825 258.042 21.7775 258.042 15.6035C258.042 9.42959 253.034 4.42462 246.856 4.42462C240.678 4.42462 235.67 9.42959 235.67 15.6035C235.67 21.7775 240.678 26.7825 246.856 26.7825Z" fill="#FEB8B8"/>
<path d="M238.47 170.758C237.99 170.759 237.525 170.59 237.158 170.282C236.79 169.974 236.542 169.546 236.459 169.074C233.571 153.044 224.123 100.619 223.896 99.1653C223.891 99.1319 223.889 99.0982 223.889 99.0644V95.1551C223.889 95.0127 223.933 94.8738 224.016 94.7581L225.264 93.0126C225.323 92.9285 225.401 92.8592 225.492 92.8098C225.582 92.7605 225.682 92.7326 225.785 92.7281C232.901 92.3948 256.201 91.4177 257.327 92.8231C258.457 94.2341 258.056 98.5159 257.965 99.3592L257.969 99.4472L268.438 166.354C268.52 166.888 268.388 167.432 268.071 167.869C267.755 168.307 267.278 168.602 266.745 168.691L260.207 169.767C259.72 169.846 259.221 169.746 258.801 169.488C258.381 169.23 258.068 168.829 257.918 168.36C255.896 161.902 249.115 140.177 246.765 131.771C246.752 131.716 246.719 131.667 246.672 131.635C246.625 131.603 246.568 131.589 246.512 131.598C246.455 131.606 246.404 131.635 246.368 131.679C246.333 131.723 246.315 131.779 246.318 131.836C246.436 139.849 246.719 160.293 246.819 167.355L246.83 168.115C246.834 168.63 246.645 169.128 246.3 169.51C245.955 169.892 245.479 170.131 244.966 170.18L238.661 170.751C238.597 170.756 238.534 170.759 238.47 170.758Z" fill="#2F2E41"/>
<path d="M239.757 31.1783C237.805 32.3381 236.637 34.469 235.967 36.6412C234.726 40.6562 233.979 44.8073 233.742 49.0029L233.033 61.564L224.264 94.8677C231.865 101.295 236.249 99.8338 246.48 94.5768C256.712 89.3198 257.881 96.3294 257.881 96.3294L259.927 67.9925L262.85 37.0275C262.194 36.2379 261.451 35.5244 260.636 34.9002C257.934 32.8001 254.79 31.3403 251.442 30.6307C248.094 29.9211 244.628 29.9802 241.306 30.8037L239.757 31.1783Z" fill="#E6E6E6"/>
<path d="M236.909 70.0697C237.144 70.1579 237.373 70.2644 237.592 70.3884L257.791 60.284L258.126 54.8104L266.457 54.2363L266.904 66.7137L239.912 75.6354C239.691 76.5807 239.188 77.4365 238.47 78.0891C237.751 78.7417 236.85 79.1601 235.887 79.2886C234.925 79.4171 233.946 79.2497 233.081 78.8085C232.216 78.3674 231.506 77.6735 231.045 76.8192C230.584 75.9648 230.395 74.9905 230.501 74.0258C230.608 73.0612 231.007 72.1519 231.643 71.419C232.28 70.6861 233.125 70.1642 234.065 69.9229C235.006 69.6816 235.998 69.7322 236.909 70.0681L236.909 70.0697Z" fill="#FEB8B8"/>
<path d="M262.704 37.1671C267.674 38.9198 268.549 57.9103 268.549 57.9103C262.703 54.6969 255.687 59.9552 255.687 59.9552C255.687 59.9552 254.226 54.9885 252.472 48.562C251.942 46.7542 251.879 44.8419 252.288 43.003C252.697 41.1642 253.564 39.4586 254.81 38.0451C254.81 38.0451 257.734 35.4135 262.704 37.1671Z" fill="#E6E6E6"/>
<path d="M256.884 18.559C255.49 17.4448 253.589 19.4693 253.589 19.4693L252.474 9.44338C252.474 9.44338 245.506 10.2777 241.045 9.16474C236.585 8.0518 235.889 13.2054 235.889 13.2054C235.659 11.1241 235.612 9.02665 235.749 6.93723C236.028 4.43011 239.651 1.92299 246.062 0.251474C252.474 -1.42005 255.818 5.82299 255.818 5.82299C260.281 8.04985 258.28 19.6745 256.884 18.559Z" fill="#2F2E41"/>
<path d="M277 180.292H38.4909V181H277V180.292Z" fill="#E6E6E6"/>
<path d="M61.4997 167.791C62.5203 168.149 63.616 168.239 64.6815 168.052C65.7469 167.864 66.746 167.405 67.5825 166.72C69.7131 164.933 70.381 161.989 70.9244 159.262L72.532 151.199L69.1665 153.515C66.7461 155.18 64.2713 156.9 62.5952 159.312C60.9191 161.724 60.1877 165.018 61.5343 167.628" fill="#20CE88"/>
<path d="M62.0195 178.114C61.5958 175.03 61.1601 171.906 61.4573 168.789C61.7213 166.02 62.5664 163.316 64.2872 161.099C65.2005 159.924 66.3119 158.918 67.5712 158.125C67.8995 157.918 68.2019 158.438 67.8749 158.644C65.6954 160.02 64.0095 162.053 63.0603 164.448C62.0124 167.112 61.8442 170.016 62.0253 172.845C62.1346 174.556 62.3659 176.256 62.5991 177.954C62.6175 178.031 62.6059 178.112 62.5669 178.18C62.5279 178.249 62.4643 178.3 62.3889 178.324C62.3119 178.344 62.2299 178.334 62.1607 178.295C62.0914 178.255 62.0404 178.19 62.0188 178.114L62.0195 178.114Z" fill="#F2F2F2"/>
<path d="M65.0686 173.165C65.5063 173.83 66.108 174.371 66.8156 174.736C67.5233 175.101 68.3131 175.278 69.1089 175.249C71.1541 175.152 72.8593 173.726 74.3941 172.372L78.9341 168.367L75.9295 168.223C73.7689 168.12 71.5522 168.023 69.4928 168.689C67.4334 169.355 65.5367 170.958 65.1605 173.086" fill="#20CE88"/>
<path d="M60.822 179.887C62.8598 176.281 65.2268 172.273 69.4533 170.992C70.6285 170.637 71.8608 170.51 73.0838 170.618C73.4693 170.65 73.3729 171.245 72.9867 171.211C70.9367 171.041 68.8907 171.582 67.1931 172.743C65.5593 173.855 64.2875 175.399 63.211 177.038C62.5515 178.04 61.9609 179.088 61.3703 180.132C61.182 180.466 60.6321 180.225 60.822 179.887Z" fill="#F2F2F2"/>
<path d="M204.558 75.8332H102.447C101.946 75.8326 101.465 75.6333 101.111 75.279C100.756 74.9248 100.557 74.4445 100.556 73.9435V48.6302C100.557 48.1292 100.756 47.6489 101.111 47.2946C101.465 46.9404 101.946 46.7411 102.447 46.7405H204.558C205.059 46.7411 205.54 46.9404 205.894 47.2946C206.249 47.6489 206.448 48.1292 206.449 48.6302V73.9435C206.448 74.4445 206.249 74.9248 205.894 75.279C205.54 75.6333 205.059 75.8326 204.558 75.8332ZM102.447 47.4966C102.146 47.4969 101.858 47.6165 101.645 47.8291C101.432 48.0416 101.313 48.3299 101.312 48.6305V73.9438C101.313 74.2445 101.432 74.5327 101.645 74.7453C101.858 74.9579 102.146 75.0775 102.447 75.0778H204.558C204.858 75.0775 205.147 74.9579 205.36 74.7453C205.572 74.5327 205.692 74.2445 205.692 73.9438V48.6302C205.692 48.3295 205.572 48.0412 205.36 47.8286C205.147 47.616 204.858 47.4965 204.558 47.4962L102.447 47.4966Z" fill="#E6E6E6"/>
<path d="M136.103 55.1834C135.762 55.1834 135.436 55.3186 135.195 55.5592C134.954 55.7998 134.819 56.1261 134.819 56.4664C134.819 56.8067 134.954 57.133 135.195 57.3736C135.436 57.6142 135.762 57.7494 136.103 57.7494H196.623C196.964 57.7494 197.29 57.6142 197.531 57.3736C197.772 57.133 197.907 56.8067 197.907 56.4664C197.907 56.1261 197.772 55.7998 197.531 55.5592C197.29 55.3186 196.964 55.1834 196.623 55.1834H136.103Z" fill="#E6E6E6"/>
<path d="M136.103 62.8816C135.762 62.8816 135.436 63.0168 135.195 63.2574C134.954 63.498 134.819 63.8243 134.819 64.1646C134.819 64.5048 134.954 64.8312 135.195 65.0718C135.436 65.3124 135.762 65.4476 136.103 65.4476H162.145C162.485 65.4476 162.812 65.3124 163.053 65.0718C163.293 64.8312 163.429 64.5048 163.429 64.1646C163.429 63.8243 163.293 63.498 163.053 63.2574C162.812 63.0168 162.485 62.8816 162.145 62.8816H136.103Z" fill="#E6E6E6"/>
<path d="M118.386 67.955C122.64 67.955 126.088 64.5085 126.088 60.2571C126.088 56.0057 122.64 52.5593 118.386 52.5593C114.132 52.5593 110.683 56.0057 110.683 60.2571C110.683 64.5085 114.132 67.955 118.386 67.955Z" fill="#20CE88"/>
<path d="M117.175 64.5353C116.916 64.5357 116.664 64.452 116.457 64.2967L116.444 64.2871L113.741 62.2202C113.488 62.0264 113.322 61.7402 113.28 61.4243C113.238 61.1085 113.324 60.789 113.518 60.5361C113.712 60.2832 113.998 60.1176 114.314 60.0758C114.63 60.0339 114.95 60.1193 115.203 60.313L116.954 61.6548L121.092 56.2598C121.286 56.0072 121.572 55.8419 121.888 55.8002C122.203 55.7585 122.523 55.8438 122.776 56.0374L122.75 56.073L122.776 56.0374C123.029 56.2313 123.194 56.5174 123.236 56.8329C123.277 57.1484 123.192 57.4675 122.999 57.7202L118.132 64.0669C118.019 64.213 117.874 64.3312 117.709 64.4124C117.543 64.4936 117.361 64.5355 117.176 64.535L117.175 64.5353Z" fill="white"/>
</svg>
