<svg width="282" height="188" viewBox="0 0 282 188" fill="none" xmlns="http://www.w3.org/2000/svg">
<g clip-path="url(#clip0)">
<path opacity="0.1" d="M164.374 37.4957C147.784 36.905 131.983 31.5397 116.905 25.6812C101.828 19.8227 86.8729 13.3042 70.6801 10.1939C60.2651 8.19313 48.353 7.9106 39.9631 13.5045C31.8859 18.8981 29.2764 28.1828 27.8742 36.8074C26.8181 43.2951 26.1977 50.1219 29.0892 56.1961C31.0989 60.4134 34.662 63.9577 37.128 67.9978C45.7076 82.0519 39.6427 99.3833 30.3479 113.106C25.9901 119.545 20.9274 125.691 17.5617 132.539C14.196 139.386 12.64 147.242 15.5853 154.234C18.5025 161.168 25.4569 166.367 32.9907 170.027C48.2915 177.459 66.3146 179.589 83.902 180.793C122.822 183.462 161.947 182.306 200.969 181.15C215.411 180.721 229.915 180.287 244.121 178.05C252.011 176.807 260.155 174.835 265.884 170.075C273.154 164.032 274.956 153.797 270.083 146.22C261.911 133.509 239.322 130.353 233.603 116.71C230.461 109.202 233.688 100.837 238.258 93.8742C248.061 78.9365 264.49 65.8301 265.353 48.7529C265.948 37.0257 258.05 25.2805 245.838 19.7303C233.039 13.9129 215.288 14.6449 205.85 24.2737C196.114 34.1774 179.024 37.9914 164.374 37.4957Z" fill="white"/>
<path d="M43.9004 188C54.2649 188 62.6669 186.381 62.6669 184.384C62.6669 182.387 54.2649 180.767 43.9004 180.767C33.536 180.767 25.1339 182.387 25.1339 184.384C25.1339 186.381 33.536 188 43.9004 188Z" fill="#20CE88"/>
<path d="M43.5851 185.714C44.7913 185.714 45.7691 184.431 45.7691 182.848C45.7691 181.265 44.7913 179.982 43.5851 179.982C42.3789 179.982 41.4011 181.265 41.4011 182.848C41.4011 184.431 42.3789 185.714 43.5851 185.714Z" fill="#3F3D56"/>
<path d="M43.5851 182.211C44.7913 182.211 45.7691 180.928 45.7691 179.345C45.7691 177.762 44.7913 176.478 43.5851 176.478C42.3789 176.478 41.4011 177.762 41.4011 179.345C41.4011 180.928 42.3789 182.211 43.5851 182.211Z" fill="#3F3D56"/>
<path d="M43.5851 178.708C44.7913 178.708 45.7691 177.424 45.7691 175.841C45.7691 174.258 44.7913 172.975 43.5851 172.975C42.3789 172.975 41.4011 174.258 41.4011 175.841C41.4011 177.424 42.3789 178.708 43.5851 178.708Z" fill="#3F3D56"/>
<path d="M43.5851 175.207C44.7913 175.207 45.7691 173.924 45.7691 172.341C45.7691 170.758 44.7913 169.474 43.5851 169.474C42.3789 169.474 41.4011 170.758 41.4011 172.341C41.4011 173.924 42.3789 175.207 43.5851 175.207Z" fill="#3F3D56"/>
<path d="M43.5851 171.704C44.7913 171.704 45.7691 170.42 45.7691 168.837C45.7691 167.254 44.7913 165.971 43.5851 165.971C42.3789 165.971 41.4011 167.254 41.4011 168.837C41.4011 170.42 42.3789 171.704 43.5851 171.704Z" fill="#3F3D56"/>
<path d="M43.5851 168.2C44.7913 168.2 45.7691 166.917 45.7691 165.334C45.7691 163.751 44.7913 162.468 43.5851 162.468C42.3789 162.468 41.4011 163.751 41.4011 165.334C41.4011 166.917 42.3789 168.2 43.5851 168.2Z" fill="#3F3D56"/>
<path d="M43.5851 164.697C44.7913 164.697 45.7691 163.414 45.7691 161.831C45.7691 160.248 44.7913 158.965 43.5851 158.965C42.3789 158.965 41.4011 160.248 41.4011 161.831C41.4011 163.414 42.3789 164.697 43.5851 164.697Z" fill="#3F3D56"/>
<path d="M51.7648 137.86C52.0642 137.48 52.3365 137.079 52.58 136.661L46.838 135.716L53.0465 135.762C53.6426 134.463 53.9678 133.057 54.0022 131.628C54.0366 130.199 53.7794 128.779 53.2465 127.453L44.9181 131.783L52.6082 126.133C51.8878 124.888 50.9195 123.805 49.7634 122.951C48.6074 122.098 47.2883 121.492 45.8884 121.171C44.4884 120.85 43.0375 120.821 41.626 121.086C40.2144 121.351 38.8724 121.904 37.6834 122.711C36.4945 123.518 35.484 124.562 34.7149 125.777C33.9458 126.992 33.4346 128.353 33.213 129.775C32.9913 131.197 33.0641 132.649 33.4267 134.041C33.7893 135.433 34.4341 136.736 35.3208 137.868C34.8556 138.461 34.4552 139.103 34.1262 139.781L41.5805 143.66L33.6341 140.988C33.075 142.641 32.9365 144.407 33.2311 146.126C33.5256 147.846 34.2439 149.465 35.3208 150.836C34.1063 152.382 33.3507 154.24 33.1405 156.197C32.9303 158.154 33.2738 160.13 34.1319 161.901C34.99 163.671 36.328 165.164 37.9929 166.208C39.6578 167.252 41.5824 167.806 43.5467 167.806C45.5109 167.806 47.4355 167.252 49.1004 166.208C50.7653 165.164 52.1033 163.671 52.9614 161.901C53.8195 160.13 54.163 158.154 53.9528 156.197C53.7426 154.24 52.987 152.382 51.7725 150.836C53.2239 148.987 54.0129 146.704 54.0129 144.352C54.0129 142 53.2239 139.716 51.7725 137.868L51.7648 137.86Z" fill="#20CE88"/>
<path opacity="0.1" d="M33.083 144.34C33.0799 146.692 33.8693 148.976 35.3234 150.823C34.1089 152.37 33.3534 154.228 33.1431 156.184C32.9329 158.141 33.2765 160.118 34.1346 161.888C34.9927 163.658 36.3307 165.151 37.9956 166.195C39.6605 167.24 41.5851 167.793 43.5493 167.793C45.5135 167.793 47.4381 167.24 49.103 166.195C50.7679 165.151 52.1059 163.658 52.964 161.888C53.8221 160.118 54.1657 158.141 53.9555 156.184C53.7452 154.228 52.9897 152.37 51.7752 150.823C53.1697 149.043 33.083 143.166 33.083 144.34Z" fill="black"/>
<path d="M134.821 140.744C134.98 142.799 135.769 144.926 137.431 146.138C139.092 147.35 141.734 147.327 143.003 145.699C143.429 145.088 143.743 144.405 143.929 143.683C144.998 140.298 145.756 136.594 144.585 133.242C141.942 133.07 138.879 131.824 136.895 134.013C135.293 135.795 134.636 138.369 134.821 140.744Z" fill="#3F3D56"/>
<path d="M147.089 120.036C146.738 123.023 146.141 125.997 146.202 129.004C146.225 130.165 146.348 131.316 146.351 132.482C146.355 135.51 145.559 138.485 144.044 141.104C143.884 141.412 143.671 141.689 143.413 141.921C142.806 142.414 141.891 142.373 141.209 141.995C140.543 141.58 140.001 140.992 139.643 140.292C137.733 137.015 137.679 133.032 136.923 129.315C136.344 126.472 135.328 123.716 134.962 120.84C134.723 118.988 134.759 117.1 134.38 115.271C134.265 114.719 133.942 113.89 133.729 113.075C133.534 112.348 133.426 111.634 133.626 111.144C134.034 110.14 135.369 110.53 136.238 110.592C139.299 110.819 142.372 110.811 145.431 110.569C145.733 110.545 146.077 110.533 146.289 110.748C146.382 110.857 146.452 110.984 146.494 111.121C146.738 111.789 146.924 112.476 147.051 113.175C147.474 115.413 147.356 117.757 147.089 120.036Z" fill="#FABDBD"/>
<g opacity="0.1">
<path opacity="0.1" d="M145.91 110.569C145.753 110.552 145.594 110.552 145.436 110.569C143.97 110.687 142.501 110.746 141.035 110.753C142.66 110.757 144.285 110.695 145.91 110.569Z" fill="black"/>
<path opacity="0.1" d="M141.727 141.995C141.061 141.58 140.519 140.992 140.16 140.292C138.251 137.015 138.197 133.032 137.441 129.315C136.861 126.472 135.846 123.716 135.48 120.84C135.241 118.988 135.277 117.1 134.898 115.271C134.783 114.719 134.46 113.889 134.247 113.075C134.052 112.348 133.944 111.634 134.144 111.144C134.229 110.943 134.372 110.772 134.555 110.653C134.738 110.534 134.952 110.472 135.17 110.476C134.521 110.432 133.888 110.509 133.632 111.144C133.432 111.634 133.539 112.348 133.734 113.075C133.947 113.889 134.27 114.719 134.385 115.271C134.765 117.1 134.729 118.988 134.967 120.84C135.334 123.719 136.349 126.475 136.928 129.315C137.684 133.032 137.738 137.02 139.648 140.292C140.007 140.992 140.548 141.58 141.214 141.995C141.623 142.222 142.092 142.317 142.557 142.267C142.266 142.229 141.984 142.137 141.727 141.995Z" fill="black"/>
</g>
<path d="M156.781 135.788C155.243 138.87 155.5 143.236 155.5 143.236C155.756 153.509 151.655 175.084 151.655 175.084H148.066C148.066 175.084 147.553 151.198 148.066 149.143C148.579 147.088 147.81 139.897 147.041 129.88C146.469 122.432 148.025 115.682 148.861 112.721C149.148 111.694 149.348 111.131 149.348 111.131C149.348 111.131 155.243 102.399 158.576 106.508C159.345 107.463 159.752 109.392 159.893 111.827C160.35 119.861 157.961 133.422 156.781 135.788Z" fill="#FABDBD"/>
<path opacity="0.1" d="M159.893 111.827C159.752 109.392 159.35 107.461 158.576 106.508C157.832 105.594 156.961 105.316 156.059 105.437C156.758 105.553 157.385 105.937 157.807 106.508C158.576 107.463 158.983 109.392 159.124 111.827C159.581 119.861 157.192 133.422 156.012 135.787C154.474 138.87 154.731 143.236 154.731 143.236C154.987 153.509 150.886 175.084 150.886 175.084H151.655C151.655 175.084 155.756 153.509 155.5 143.236C155.5 143.236 155.243 138.87 156.781 135.787C157.961 133.422 160.35 119.861 159.893 111.827Z" fill="black"/>
<path d="M146.2 174.146C145.913 174.371 145.666 174.642 145.467 174.947C145.008 175.816 145.659 176.853 146.356 177.544C147.053 178.235 147.894 178.975 147.894 179.958C147.894 180.749 147.297 181.428 146.628 181.849C146.269 182.075 145.818 182.362 145.892 182.789C145.918 182.897 145.964 182.999 146.028 183.089C146.602 183.97 147.62 184.486 148.65 184.682C149.681 184.877 150.745 184.792 151.793 184.707C151.95 184.713 152.104 184.66 152.224 184.558C152.3 184.456 152.34 184.332 152.339 184.204C152.39 183.659 152.357 183.084 152.595 182.594C152.929 181.923 153.695 181.582 154.133 180.981C154.749 180.159 154.664 179.016 154.431 178.017C153.918 175.841 152.777 173.36 151.065 171.853C149.081 170.122 147.525 172.895 146.2 174.146Z" fill="#3F3D56"/>
<path d="M153.967 44.6872C155.397 42.5452 155.026 39.5504 153.564 37.4187C152.103 35.2869 149.755 33.9462 147.333 33.0807C144.067 31.9147 140.466 31.5166 137.11 32.3924C134.439 33.0884 132.04 34.5447 129.522 35.6696C125.069 37.6605 120.227 38.6259 115.352 38.4948C109.941 38.3433 104.012 36.9538 99.4719 39.9177C91.1615 45.3344 94.8579 60.0769 86.996 66.1152C84.8761 67.7435 82.2076 68.4549 79.8493 69.7109C77.491 70.9668 75.2557 73.1525 75.3121 75.8288C75.3377 77.1129 75.9017 78.3381 76.5938 79.4245C79.5417 84.1066 85.0529 87.0037 90.5719 86.9498C96.0908 86.8959 101.476 83.9551 104.658 79.4296C105.455 78.297 106.157 77.0359 107.313 76.2808C109.62 74.7654 112.661 75.8262 115.414 76.0522C121.543 76.553 127.674 71.9428 128.894 65.8943C129.407 63.3131 129.317 60.2284 131.391 58.6078C133.065 57.3005 135.421 57.5804 137.543 57.357C141.424 56.9538 144.487 54.5318 146.595 51.3675C147.561 49.9164 147.674 48.1828 148.991 47.0398C150.411 45.7839 152.608 46.7111 153.967 44.6872Z" fill="#3F3D56"/>
<g opacity="0.1">
<path opacity="0.1" d="M110.225 38.9905C112.473 39.0523 114.721 38.8802 116.934 38.4768C116.323 38.4948 115.708 38.4948 115.096 38.4768C110.848 38.3587 106.283 37.4803 102.32 38.5385C104.934 38.5642 107.639 38.9186 110.225 38.9905Z" fill="black"/>
<path opacity="0.1" d="M102.181 76.7919C101.025 77.547 100.323 78.808 99.5257 79.9407C97.0754 83.3868 93.4942 85.8604 89.4081 86.9292C89.708 86.9421 90.0079 86.9498 90.3104 86.9472C95.8345 86.8933 101.215 83.9525 104.396 79.427C105.193 78.2944 105.896 77.0333 107.052 76.2782L107.252 76.1549C105.442 75.9058 103.666 75.8184 102.181 76.7919Z" fill="black"/>
<path opacity="0.1" d="M153.305 37.4109C151.847 35.2895 149.496 33.9385 147.074 33.0729C143.808 31.9069 140.207 31.5088 136.851 32.3846C136.774 32.4026 136.7 32.4257 136.626 32.4463C138.53 32.5527 140.409 32.9369 142.203 33.5866C144.626 34.4522 146.976 35.8031 148.435 37.9246C149.894 40.0461 150.268 43.0614 148.837 45.1931C147.479 47.2247 145.282 46.2975 143.844 47.5483C142.526 48.6912 142.414 50.4249 141.447 51.876C139.635 54.5908 137.113 56.7559 133.972 57.5778C135.052 57.4494 136.19 57.4648 137.266 57.3518C141.147 56.9486 144.211 54.5266 146.318 51.3623C147.284 49.9112 147.397 48.1776 148.714 47.0346C150.152 45.7838 152.349 46.711 153.708 44.6794C155.141 42.5374 154.769 39.5324 153.305 37.4109Z" fill="black"/>
<path opacity="0.1" d="M132.399 57.8655C130.289 58.0864 127.933 57.809 126.246 59.1163C124.173 60.7369 124.273 63.8215 123.75 66.4028C122.85 70.9154 119.195 74.637 114.855 76.0213L115.16 76.0496C121.289 76.5504 127.42 71.9402 128.641 65.8917C129.153 63.3104 129.064 60.2258 131.137 58.6052C131.614 58.2483 132.154 57.9867 132.729 57.8347C132.614 57.8372 132.509 57.8552 132.399 57.8655Z" fill="black"/>
</g>
<path d="M194.335 35.4924C194.335 35.4924 188.183 47.8206 186.132 52.4437C184.081 57.0668 165.369 64.0014 162.805 64.2582C162.118 64.3527 161.477 64.6618 160.975 65.1418C159.527 66.4259 158.704 68.6245 158.704 68.6245C158.704 68.6245 159.729 75.5591 158.448 87.1168C158.422 87.3402 158.399 87.5637 158.378 87.7794C157.261 98.7772 159.601 101.371 159.601 101.371C159.601 101.371 134.736 110.874 135.505 98.5461C135.746 94.6652 135.711 91.8298 135.472 89.4591C135.211 87.0323 134.718 84.6362 134.001 82.3036C133.393 80.1745 132.668 77.8398 131.917 74.6602C131.555 73.0737 131.079 71.5157 130.491 69.9985C130.474 69.9523 130.456 69.9061 130.44 69.8624C129.159 66.6751 127.877 65.6451 127.144 65.3113C126.451 65.0096 125.792 64.6378 125.175 64.2017C122.806 62.4886 117.723 58.6489 113.196 54.1131C107.044 47.949 100.892 33.3093 100.892 33.3093C100.892 33.3093 99.0977 24.8336 103.199 17.899C107.301 10.9644 105.506 31.5114 105.506 31.5114C105.506 31.5114 112.94 41.5281 114.734 46.1512C115.657 48.5295 117.123 49.7469 118.323 50.3787C120.305 51.4125 122.203 52.601 123.998 53.9333C125.212 54.8523 126.487 55.6864 127.815 56.4298C130.681 57.9708 134.114 59.7096 136.974 60.1668C137.421 60.2407 137.873 60.2794 138.325 60.2824C138.54 60.2892 138.753 60.2465 138.949 60.1574C139.145 60.0683 139.317 59.9353 139.453 59.7687C140.222 58.8621 140.204 56.9101 140.027 55.3049C139.933 54.4733 139.792 53.6476 139.607 52.8315C139.607 52.8315 147.938 47.5663 147.681 53.9873C147.642 54.6968 147.707 55.4083 147.876 56.0985C148.013 56.732 148.315 57.3179 148.751 57.7962C149.187 58.2745 149.743 58.6282 150.36 58.821C151.361 59.1149 152.419 59.1494 153.436 58.9211C153.753 58.8669 154.06 58.7619 154.344 58.6104C155.113 58.0967 162.803 55.7851 165.11 55.5283C167.417 55.2715 178.952 49.621 178.952 49.621L191.513 32.1561C191.513 32.1561 191.256 21.8826 196.383 17.7732C201.51 13.6638 194.335 35.4924 194.335 35.4924Z" fill="#FABDBD"/>
<g opacity="0.1">
<path opacity="0.1" d="M158.379 86.2384C158.155 88.3023 158.056 90.378 158.084 92.4539C158.109 91.0978 158.199 89.549 158.379 87.7794C158.399 87.5637 158.422 87.3402 158.448 87.1168C158.896 83.1614 159.11 79.1829 159.089 75.2021C159.049 78.6686 158.835 82.1309 158.448 85.5758C158.432 85.7992 158.399 86.0227 158.379 86.2384Z" fill="black"/>
<path opacity="0.1" d="M139.873 52.6671C139.702 52.7673 139.617 52.8289 139.617 52.8289C139.866 53.9276 140.031 55.0439 140.109 56.1678C140.161 54.9958 140.082 53.8216 139.873 52.6671Z" fill="black"/>
<path opacity="0.1" d="M105.627 30.1168C105.752 28.3189 105.939 25.0956 105.903 22.2293C105.86 26.0613 105.519 29.9704 105.519 29.9704L105.627 30.1168Z" fill="black"/>
<path opacity="0.1" d="M135.523 98.2455C135.523 98.3457 135.523 98.4459 135.505 98.546C134.736 110.874 159.601 101.371 159.601 101.371C159.31 100.978 159.091 100.536 158.953 100.067C155.208 101.402 136.387 107.612 135.523 98.2455Z" fill="black"/>
<path opacity="0.1" d="M194.335 33.9514C194.335 33.9514 188.183 46.2796 186.132 50.9026C184.081 55.5257 165.369 62.4603 162.805 62.7172C162.118 62.8116 161.477 63.1208 160.975 63.6007C159.527 64.8849 158.704 67.0834 158.704 67.0834C158.704 67.0834 158.766 67.5021 158.84 68.2982C159.127 67.6382 159.865 66.1228 160.975 65.1417C161.477 64.6618 162.118 64.3526 162.805 64.2582C165.369 64.0014 184.081 57.0667 186.132 52.4437C188.183 47.8206 194.335 35.4924 194.335 35.4924C194.335 35.4924 198.67 22.3038 198.193 18.3588C197.798 23.4133 194.335 33.9514 194.335 33.9514Z" fill="black"/>
<path opacity="0.1" d="M135.472 87.9181C135.211 85.4913 134.718 83.0951 134.001 80.7626C133.393 78.6334 132.668 76.2988 131.917 73.1191C131.555 71.5326 131.079 69.9747 130.491 68.4575C130.474 68.4113 130.456 68.365 130.44 68.3214C129.158 65.134 127.877 64.1041 127.144 63.7702C126.451 63.4685 125.792 63.0968 125.175 62.6607C122.806 60.9476 117.723 57.1079 113.196 52.5721C107.044 46.408 100.892 31.7683 100.892 31.7683C100.665 30.5324 100.538 29.28 100.513 28.0236C100.45 29.794 100.577 31.566 100.892 33.3093C100.892 33.3093 107.044 47.949 113.196 54.1131C117.723 58.6489 122.806 62.4886 125.175 64.2017C125.797 64.6387 126.462 65.0105 127.159 65.3112C127.89 65.6451 129.169 66.6751 130.456 69.8624C130.471 69.9061 130.489 69.9523 130.507 69.9985C131.092 71.5159 131.565 73.0739 131.924 74.6601C132.675 77.8398 133.401 80.1744 134.008 82.3036C134.726 84.6362 135.219 87.0323 135.48 89.4591C135.587 90.5327 135.652 91.7013 135.669 93.0163C135.701 91.3145 135.635 89.6124 135.472 87.9181Z" fill="black"/>
</g>
<path d="M160.86 76.7611C160.468 77.4093 160.126 78.0858 159.834 78.7849C159.447 79.8637 159.445 81.0374 159.373 82.1803C159.271 83.7843 159.027 85.376 158.645 86.937C158.583 87.2245 158.497 87.5063 158.389 87.7794C158.312 87.9633 158.211 88.1361 158.089 88.2931C157.952 88.4606 157.791 88.6068 157.612 88.7271C157.337 88.9109 157.046 89.0699 156.743 89.2023C153.175 90.8717 149.284 92.346 145.39 91.7707C143.744 91.4823 142.151 90.9454 140.665 90.1783C139.256 89.4925 137.661 88.6783 136.2 89.2485C135.976 89.3626 135.734 89.4381 135.485 89.472C135.437 89.4728 135.389 89.4685 135.341 89.4591C134.859 89.3667 134.859 87.7383 134.749 87.258C134.329 85.4139 134.265 83.9191 134.013 82.3165C133.88 81.4302 133.673 80.5565 133.396 79.7044C132.37 76.5967 132.06 73.2835 132.06 70.0268C132.06 69.865 130.907 70.0268 130.522 70.0114C130.425 70.0114 130.371 69.996 130.394 69.9626C130.416 69.9306 130.442 69.9013 130.471 69.8752C130.605 69.7661 130.762 69.688 130.93 69.6467L131.232 69.5568C132.816 69.1073 134.565 68.9198 135.749 67.8026C136.979 66.6494 137.287 64.8078 137.233 63.123C137.218 62.5811 136.954 61.266 136.997 60.1745C137.444 60.2484 137.896 60.2871 138.348 60.2901C138.563 60.2969 138.776 60.2542 138.972 60.1651C139.168 60.076 139.34 59.943 139.476 59.7764C139.904 60.606 140.274 61.4641 140.583 62.3448C141.019 63.4183 141.352 64.5484 141.991 65.5193C143.016 67.1014 144.908 68.1416 146.789 67.9824C148.671 67.8231 150.422 66.3745 150.757 64.515C151.052 62.8841 150.368 60.5366 150.383 58.8415C151.384 59.1355 152.442 59.1699 153.459 58.9417C153.502 59.0463 153.539 59.1535 153.569 59.2627C154.146 61.2455 154.915 63.5211 156.851 64.2248C158.102 64.6769 159.581 64.3378 160.737 64.9953C160.826 65.0465 160.911 65.1031 160.993 65.1648C161.26 65.3637 161.49 65.608 161.672 65.8866C162.147 66.6721 162.429 67.5594 162.495 68.4755C162.791 71.3391 162.221 74.2259 160.86 76.7611Z" fill="#6C63FF"/>
<path opacity="0.1" d="M147.876 56.0959C146.598 56.5897 145.221 56.7752 143.857 56.6373C142.494 56.4995 141.182 56.0421 140.027 55.3022C139.933 54.4707 139.792 53.645 139.607 52.8289C139.607 52.8289 147.938 47.5637 147.681 53.9847C147.642 54.6942 147.707 55.4057 147.876 56.0959Z" fill="black"/>
<path d="M144.731 56.1678C149.544 56.1678 153.446 52.2581 153.446 47.4353C153.446 42.6125 149.544 38.7029 144.731 38.7029C139.918 38.7029 136.016 42.6125 136.016 47.4353C136.016 52.2581 139.918 56.1678 144.731 56.1678Z" fill="#FABDBD"/>
<path d="M129.481 69.1381C129.481 69.1381 146.4 58.3509 198.949 69.9086C251.498 81.4663 282.003 72.2202 282.003 72.2202V84.2915C282.003 84.2915 223.045 90.7125 200.487 84.2915C177.929 77.8706 145.818 74.167 134.572 84.1092L129.481 69.1381Z" fill="#F86D70"/>
<path opacity="0.1" d="M129.481 69.1381C129.481 69.1381 146.4 58.3509 198.949 69.9086C251.498 81.4663 282.003 72.2202 282.003 72.2202V84.2915C282.003 84.2915 223.045 90.7125 200.487 84.2915C177.929 77.8706 145.818 74.167 134.572 84.1092L129.481 69.1381Z" fill="black"/>
<path d="M129.994 69.6518C129.994 69.6518 146.4 58.8646 198.949 70.4223C251.498 81.98 281.49 72.7338 281.49 72.7338L281.746 83.7779C281.746 83.7779 223.301 90.1988 200.743 83.7779C178.186 77.3569 146.33 72.8828 135.085 82.825L129.994 69.6518Z" fill="#F86D70"/>
<path d="M123.827 86.2435C123.827 86.2435 106.908 97.0307 54.3591 85.473C1.80978 73.9153 4.37316 83.1614 4.37316 83.1614V71.0901C4.37316 71.0901 30.2633 64.6691 52.821 71.0901C75.3788 77.511 107.49 81.2146 118.736 71.2724L123.827 86.2435Z" fill="#F86D70"/>
<path opacity="0.1" d="M123.827 86.2435C123.827 86.2435 106.908 97.0307 54.3591 85.473C1.80978 73.9153 4.37316 83.1614 4.37316 83.1614V71.0901C4.37316 71.0901 30.2633 64.6691 52.821 71.0901C75.3788 77.511 107.49 81.2146 118.736 71.2724L123.827 86.2435Z" fill="black"/>
<path d="M123.314 85.7298C123.314 85.7298 106.908 96.517 54.359 84.9593C1.80968 73.4016 4.88573 82.6478 4.88573 82.6478L4.62939 71.6038C4.62939 71.6038 30.0069 65.1828 52.5646 71.6038C75.1223 78.0247 106.977 82.4988 118.223 72.5566L123.314 85.7298Z" fill="#F86D70"/>
<path d="M137.236 48.8813C136.979 47.2787 136.585 45.2599 137.923 44.343C138.4 44.0531 138.952 43.9102 139.509 43.9321C142.28 43.9038 144.928 45.8378 147.646 45.2728C148.51 45.0912 149.304 44.6632 149.932 44.0403C150.56 43.4173 150.995 42.626 151.184 41.7613C151.374 40.8967 151.31 39.9956 151 39.1664C150.691 38.3373 150.149 37.6153 149.44 37.0873C148.371 36.2912 147.02 36.0035 145.713 35.7338C142.275 35.0249 138.687 34.3186 135.293 35.2201C131.899 36.1216 128.797 39.1703 129.069 42.6684C129.197 44.343 130.048 45.8635 130.937 47.2915C131.614 48.3754 134.249 53.4556 135.528 53.5327C137.333 53.638 137.413 49.9292 137.236 48.8813Z" fill="#3F3D56"/>
<path d="M158.832 97.005C158.832 97.005 141.145 101.371 135.249 97.005C135.249 97.005 132.686 107.022 133.455 112.158C133.455 112.158 146.015 112.929 147.297 113.699C147.297 113.699 147.553 111.645 148.835 112.672C148.835 112.672 153.193 107.535 161.139 112.158C161.139 112.158 162.677 100.087 158.832 97.005Z" fill="#6C63FF"/>
<path opacity="0.1" d="M149.445 37.0874C149.263 36.955 149.072 36.8348 148.873 36.7278C149.402 37.3303 149.764 38.0614 149.923 38.8479C150.081 39.6345 150.031 40.449 149.777 41.21C149.523 41.971 149.074 42.6518 148.475 43.1845C147.876 43.7172 147.148 44.083 146.364 44.2454C143.647 44.8105 140.999 42.8765 138.228 42.9047C137.67 42.8828 137.118 43.0257 136.641 43.3157C135.303 44.2326 135.695 46.2513 135.951 47.854C136.121 48.9019 136.051 52.6106 134.252 52.5105H134.221C134.716 53.114 135.177 53.5224 135.534 53.5378C137.328 53.638 137.402 49.9421 137.233 48.8813C136.977 47.2787 136.585 45.2599 137.923 44.343C138.4 44.0531 138.952 43.9102 139.509 43.9321C142.28 43.9038 144.928 45.8378 147.646 45.2728C148.51 45.0912 149.304 44.6632 149.932 44.0403C150.56 43.4173 150.995 42.626 151.184 41.7614C151.374 40.8967 151.31 39.9956 151 39.1665C150.691 38.3373 150.149 37.6153 149.44 37.0874H149.445Z" fill="black"/>
<g opacity="0.1">
<path opacity="0.1" d="M22.1374 24.8876C22.1374 24.8876 2.97096 16.8126 0.458849 31.3753C0.458849 31.3753 -0.851039 33.6431 0.971525 35.5181C0.971525 35.5181 1.36372 34.5138 3.21705 35.554C3.87865 35.9185 4.5807 36.2038 5.30876 36.4042C6.29262 36.6761 7.33802 36.6202 8.28741 36.2449C8.28741 36.2449 14.5908 35.9033 19.8918 27.6409C19.8918 27.6409 22.163 26.2334 22.2783 25.7069L18.4794 25.9637C18.4794 25.9637 18.7691 28.7504 17.1977 30.4224C17.1977 30.4224 18.5948 26.0998 17.9232 25.9765C17.7873 25.9509 15.916 26.2 15.916 26.2C15.916 26.2 16.4005 31.0439 13.8653 33.5507C13.8653 33.5507 16.2185 28.622 15.1932 26.2873L12.3914 26.8292C12.3914 26.8292 13.1604 31.9249 10.3868 34.8914C10.3868 34.8914 12.6657 29.6519 11.7864 26.9885L9.1 27.8926C9.1 27.8926 9.74854 32.8803 7.42868 35.3408C7.42868 35.3408 9.45375 29.0201 8.50017 28.1494C8.50017 28.1494 6.08547 29.1305 5.56767 29.6904C5.56767 29.6904 5.95217 33.2861 4.47567 34.5703C4.47567 34.5703 5.3831 30.2041 4.93451 30.0243C4.93451 30.0243 2.12761 32.1406 1.274 33.9668C1.274 33.9668 2.34037 31.1775 4.58076 29.6005C4.58076 29.6005 2.69924 29.282 1.24837 30.0705C1.24837 30.0705 2.21989 28.2187 5.26006 29.0971C5.26006 29.0971 7.51327 27.5355 7.96443 27.5561C7.96443 27.5561 5.08831 26.2719 3.00941 26.4286C3.00941 26.4286 5.23699 25.1444 8.66936 27.2916L11.3455 26.3207C11.3455 26.3207 7.63119 24.4124 5.76761 24.4201C5.76761 24.4201 8.24383 23.4621 12.0428 26.1332L14.783 25.5707C14.783 25.5707 11.707 23.683 9.63319 23.2438C9.63319 23.2438 12.1222 22.8508 15.5751 25.4423L17.4515 25.2831C17.4515 25.2831 15.1803 23.945 14.4934 23.6188C13.8064 23.2926 13.8371 23.0794 13.8371 23.0794C15.4722 23.3639 16.9961 24.0984 18.2385 25.2009C18.2385 25.2009 22.1194 25.1264 22.1374 24.8876Z" fill="#6C63FF"/>
</g>
<g opacity="0.1">
<path opacity="0.1" d="M21.4298 10.4122C21.4298 10.4122 14.6266 -5.32425 4.86271 1.89289C4.86271 1.89289 2.79406 2.49389 2.81201 4.64105C2.81201 4.64105 3.61691 4.26864 4.12446 5.94322C4.31422 6.5379 4.57229 7.10847 4.89347 7.64348C5.31827 8.3631 5.96518 8.92472 6.73654 9.24358C6.73654 9.24358 10.6739 12.639 18.5281 10.7564C18.5281 10.7564 20.6788 11.2187 21.0479 10.9695L18.646 8.95079C18.646 8.95079 17.2361 10.7718 15.3444 10.8617C15.3444 10.8617 18.6332 9.08948 18.3025 8.63231C18.2359 8.53985 16.9849 7.62037 16.9849 7.62037C16.9849 7.62037 14.5164 10.7743 11.6018 10.8231C11.6018 10.8231 15.8032 9.23588 16.521 7.26593L14.5497 5.98175C14.5497 5.98175 12.1043 9.44648 8.77443 9.62627C8.77443 9.62627 13.1065 7.82841 14.0986 5.73261L11.9889 4.73608C11.9889 4.73608 9.53831 8.07497 6.7673 8.20082C6.7673 8.20082 11.5634 5.60163 11.489 4.54089C11.489 4.54089 9.4973 3.74469 8.86671 3.79092C8.86671 3.79092 7.0544 6.14099 5.43691 6.07421C5.43691 6.07421 8.45913 3.99639 8.29251 3.63425C8.29251 3.63425 5.42153 3.29009 3.87581 3.89109C3.87581 3.89109 6.0957 2.84319 8.32327 3.18735C8.32327 3.18735 7.38764 1.92114 6.08288 1.56927C6.08288 1.56927 7.71319 1.02221 9.02051 3.27981C9.02051 3.27981 11.2455 3.63682 11.5044 3.90393C11.5044 3.90393 10.5303 1.49222 9.19739 0.405799C9.19739 0.405799 11.2481 0.919476 12.0684 4.14793L14.2088 5.10079C14.2088 5.10079 13.0886 1.84666 11.9633 0.791055C11.9633 0.791055 13.9807 1.63348 14.7189 5.38845L16.6645 6.6187C16.6645 6.6187 15.9083 3.74212 14.9291 2.30897C14.9291 2.30897 16.6312 3.49299 17.2105 7.00396L18.4153 7.97994C18.4153 7.97994 17.8257 5.88928 17.6027 5.30369C17.3797 4.7181 17.5207 4.61023 17.5207 4.61023C18.329 5.7133 18.8161 7.01934 18.928 8.38318C18.928 8.38318 21.2914 10.5457 21.4298 10.4122Z" fill="#6C63FF"/>
</g>
</g>
<defs>
<clipPath id="clip0">
<rect width="282" height="188" fill="white"/>
</clipPath>
</defs>
</svg>
