<svg width="258" height="154" viewBox="0 0 258 154" fill="none" xmlns="http://www.w3.org/2000/svg">
<path d="M197.531 152.259C194.228 149.472 192.221 145.07 192.748 140.785C193.274 136.499 196.533 132.56 200.76 131.65C204.987 130.74 209.806 133.259 211.09 137.381C211.797 129.433 212.611 121.151 216.844 114.382C220.676 108.253 227.314 103.868 234.509 103.083C241.703 102.299 249.278 105.262 253.765 110.931C258.252 116.6 259.35 124.842 256.208 131.351C253.893 136.146 249.628 139.714 245.159 142.617C230.719 151.919 213.401 155.702 196.39 153.269L197.531 152.259Z" fill="#20CE88"/>
<path d="M246.65 105.426C240.714 110.253 235.268 115.652 230.392 121.545C222.76 130.735 216.584 141.039 212.079 152.098C211.749 152.905 213.061 153.256 213.387 152.458C220.758 134.486 232.524 118.644 247.61 106.384C248.287 105.833 247.322 104.88 246.65 105.426Z" fill="white"/>
<path d="M83.0544 151.501C87.5912 147.674 90.3469 141.628 89.6242 135.742C88.9015 129.856 84.4254 124.445 78.6193 123.195C72.8131 121.945 66.1945 125.405 64.431 131.068C63.4604 120.15 62.3421 108.776 56.5284 99.4784C51.2642 91.0602 42.1466 85.0365 32.2652 83.9589C22.3837 82.8813 11.9799 86.9513 5.81718 94.7381C-0.345511 102.525 -1.85442 113.845 2.46177 122.785C5.64135 129.371 11.4993 134.272 17.6369 138.259C37.2181 150.98 61.5085 156.285 84.6212 152.89" fill="#20CE88"/>
<path d="M15.5887 87.177C23.7421 93.8073 31.222 101.223 37.9202 109.316C44.6195 117.402 50.5174 126.116 55.5313 135.339C58.3338 140.512 60.8513 145.834 63.0727 151.281C63.5256 152.389 61.7234 152.872 61.2755 151.776C57.3409 142.172 52.4731 132.977 46.7418 124.322C41.0383 115.698 34.5105 107.646 27.2498 100.281C23.1432 96.117 18.8103 92.1816 14.2709 88.4927C13.3404 87.7363 14.666 86.4267 15.5887 87.177L15.5887 87.177Z" fill="white"/>
<path d="M185.197 153.663H76.9552V42.7828C76.9552 19.1922 96.1784 0 119.807 0H142.345C165.973 0 185.197 19.1922 185.197 42.7828V153.663Z" fill="#F2F2F2"/>
<path d="M162.659 153.663H76.9552V42.7828C76.9315 33.7435 79.7985 24.9326 85.1387 17.6329C85.3356 17.3651 85.5319 17.1006 85.7344 16.8391C88.3175 13.4568 91.3913 10.478 94.8546 8.00112C95.0503 7.859 95.2467 7.71935 95.446 7.5797C98.344 5.57747 101.479 3.94068 104.779 2.7066C104.975 2.63244 105.175 2.55813 105.374 2.48686C108.359 1.42338 111.453 0.694899 114.599 0.314872C114.794 0.28827 114.995 0.267453 115.195 0.246636C118.261 -0.0806658 121.353 -0.0806658 124.419 0.246636C124.619 0.267453 124.819 0.288267 125.017 0.315157C128.162 0.695208 131.255 1.4236 134.24 2.48687C134.439 2.55814 134.639 2.63245 134.835 2.70676C138.095 3.92527 141.193 5.53763 144.06 7.50785C144.259 7.64447 144.458 7.78413 144.655 7.92378C146.596 9.30726 148.42 10.8485 150.107 12.5319C151.459 13.8821 152.72 15.3214 153.88 16.84C154.082 17.1007 154.278 17.3651 154.475 17.6325C159.815 24.9322 162.682 33.7433 162.659 42.7828V153.663Z" fill="#CCCCCC"/>
<path d="M155.69 104.07C158.31 104.07 160.434 101.949 160.434 99.3331C160.434 96.7169 158.31 94.5959 155.69 94.5959C153.069 94.5959 150.945 96.7169 150.945 99.3331C150.945 101.949 153.069 104.07 155.69 104.07Z" fill="#6C63FF"/>
<path d="M176.329 150.342H172.694L170.964 136.341L176.33 136.341L176.329 150.342Z" fill="#FFB8B8"/>
<path d="M170.097 149.305H177.108V153.712H165.682C165.682 153.133 165.796 152.56 166.018 152.026C166.24 151.491 166.565 151.005 166.975 150.596C167.385 150.186 167.872 149.862 168.407 149.64C168.943 149.419 169.517 149.305 170.097 149.305Z" fill="#2F2E41"/>
<path d="M194.419 150.342H190.783L189.053 136.341L194.42 136.341L194.419 150.342Z" fill="#FFB8B8"/>
<path d="M188.186 149.305H195.198V153.712H183.772C183.772 153.133 183.886 152.56 184.108 152.026C184.33 151.491 184.655 151.005 185.065 150.596C185.475 150.186 185.961 149.862 186.497 149.64C187.033 149.419 187.607 149.305 188.186 149.305Z" fill="#2F2E41"/>
<path d="M158.091 100.272C157.829 99.8869 157.656 99.4496 157.582 98.9905C157.508 98.5314 157.535 98.0617 157.663 97.6145C157.791 97.1672 158.015 96.7534 158.32 96.402C158.625 96.0507 159.003 95.7704 159.429 95.5809L171.788 61.5717L177.869 64.8852L163.758 97.3856C164.029 98.12 164.022 98.9284 163.736 99.6575C163.45 100.387 162.907 100.986 162.208 101.342C161.51 101.697 160.705 101.785 159.946 101.588C159.187 101.39 158.527 100.922 158.091 100.272Z" fill="#FFB8B8"/>
<path d="M192.562 106.662C192.158 106.431 191.809 106.114 191.541 105.734C191.273 105.353 191.092 104.919 191.01 104.461C190.928 104.004 190.948 103.533 191.068 103.084C191.188 102.635 191.405 102.217 191.704 101.861L187.875 65.8848L194.796 66.2005L196.387 101.588C196.954 102.129 197.302 102.859 197.365 103.639C197.429 104.419 197.204 105.196 196.732 105.821C196.261 106.447 195.576 106.878 194.807 107.033C194.038 107.188 193.24 107.056 192.562 106.662Z" fill="#FFB8B8"/>
<path d="M181.521 55.2723C185.544 55.2723 188.805 52.0166 188.805 48.0004C188.805 43.9843 185.544 40.7285 181.521 40.7285C177.498 40.7285 174.237 43.9843 174.237 48.0004C174.237 52.0166 177.498 55.2723 181.521 55.2723Z" fill="#FFB8B8"/>
<path d="M192.515 98.4801H170.557L170.583 98.3095C170.622 98.0545 174.497 72.7171 171.639 64.4279C171.353 63.6133 171.378 62.7216 171.71 61.9244C172.042 61.1273 172.658 60.481 173.439 60.11H173.439C177.523 58.1899 185.363 55.8255 191.98 61.5635C192.953 62.4218 193.714 63.4945 194.201 64.6967C194.687 65.8989 194.887 67.1978 194.785 68.4905L192.515 98.4801Z" fill="#6C63FF"/>
<path d="M174.774 76.4615L164.888 74.4591L169.522 63.4955C169.799 62.4336 170.487 61.5249 171.435 60.9687C172.382 60.4124 173.512 60.2541 174.576 60.5284C175.64 60.8027 176.552 61.4873 177.112 62.4319C177.671 63.3765 177.832 64.5041 177.56 65.5673L174.774 76.4615Z" fill="#6C63FF"/>
<path d="M187.436 80.1795L186.841 66.5774C186.391 64.0204 187.857 61.6032 190.111 61.2081C192.367 60.8145 194.569 62.5879 195.022 65.1637L197.256 77.8735L187.436 80.1795Z" fill="#6C63FF"/>
<path d="M191.785 96.8516C195.318 110.287 195.704 127.368 194.75 146L190.006 145.408L181.406 109.879L176.661 146L171.323 145.704C169.728 126.154 168.175 109.371 170.73 98.332L191.785 96.8516Z" fill="#2F2E41"/>
<path d="M186.32 53.6203C184.961 55.0654 182.438 54.2897 182.261 52.3155C182.247 52.1622 182.248 52.008 182.264 51.8549C182.355 50.9804 182.861 50.1865 182.74 49.2632C182.713 49.0334 182.627 48.8144 182.491 48.6269C181.408 47.1793 178.866 49.2744 177.845 47.9639C177.218 47.1604 177.955 45.8952 177.474 44.9971C176.839 43.8117 174.959 44.3965 173.78 43.7473C172.469 43.0251 172.547 41.016 173.411 39.7939C174.464 38.3036 176.31 37.5084 178.133 37.3938C179.956 37.2792 181.766 37.7712 183.468 38.4334C185.402 39.1858 187.32 40.2257 188.51 41.9234C189.957 43.988 190.096 46.7636 189.373 49.1778C188.932 50.6463 187.43 52.4403 186.32 53.6203Z" fill="#2F2E41"/>
<path d="M249.098 153.853H30.1556C30.0622 153.853 29.9726 153.816 29.9066 153.75C29.8406 153.684 29.8036 153.594 29.8036 153.501C29.8036 153.408 29.8406 153.318 29.9066 153.252C29.9726 153.186 30.0622 153.149 30.1556 153.148H249.098C249.191 153.149 249.281 153.186 249.347 153.252C249.413 153.318 249.45 153.408 249.45 153.501C249.45 153.594 249.413 153.684 249.347 153.75C249.281 153.816 249.191 153.853 249.098 153.853Z" fill="#3F3D56"/>
<path d="M139.083 121.539H100.531C100.023 121.541 99.5353 121.343 99.1739 120.987C98.8125 120.631 98.6074 120.146 98.6035 119.639V33.7274C98.6074 33.2206 98.8125 32.7359 99.1739 32.3798C99.5353 32.0237 100.023 31.8253 100.531 31.828H139.083C139.59 31.8253 140.079 32.0237 140.44 32.3798C140.801 32.7359 141.006 33.2206 141.01 33.7274V119.639C141.006 120.146 140.801 120.631 140.44 120.987C140.079 121.343 139.59 121.541 139.083 121.539Z" fill="white"/>
<path d="M141.01 59.6264H98.6035V60.2186H141.01V59.6264Z" fill="#CCCCCC"/>
<path d="M141.159 93.4116H98.7517V94.0038H141.159V93.4116Z" fill="#CCCCCC"/>
<path d="M112.541 31.8281H111.948V121.835H112.541V31.8281Z" fill="#CCCCCC"/>
<path d="M127.369 31.8281H126.776V121.835H127.369V31.8281Z" fill="#CCCCCC"/>
</svg>
