<svg width="45" height="45" viewBox="0 0 45 45" fill="none" xmlns="http://www.w3.org/2000/svg">
<path fill-rule="evenodd" clip-rule="evenodd" d="M0.958252 22.5C0.958252 10.6029 10.6028 0.958328 22.4999 0.958328C34.3971 0.958328 44.0416 10.6029 44.0416 22.5C44.0416 34.3971 34.3971 44.0417 22.4999 44.0417C10.6028 44.0417 0.958252 34.3971 0.958252 22.5ZM31.3124 16.625C31.3124 15.5434 30.4356 14.6667 29.3541 14.6667C28.2725 14.6667 27.3958 15.5434 27.3958 16.625V17.6042C27.3958 18.6857 28.2725 19.5625 29.3541 19.5625C30.4356 19.5625 31.3124 18.6857 31.3124 17.6042V16.625ZM15.6458 14.6667C16.7273 14.6667 17.6041 15.5434 17.6041 16.625V17.6042C17.6041 18.6857 16.7273 19.5625 15.6458 19.5625C14.5642 19.5625 13.6874 18.6857 13.6874 17.6042V16.625C13.6874 15.5434 14.5642 14.6667 15.6458 14.6667ZM29.631 30.3139C30.7017 30.1609 31.4457 29.169 31.2927 28.0983C31.1398 27.0276 30.1478 26.2836 29.0771 26.4366L15.3688 28.3949C14.2981 28.5479 13.5542 29.5398 13.7071 30.6105C13.8601 31.6812 14.852 32.4252 15.9227 32.2722L29.631 30.3139Z" fill="#FF0B0B"/>
</svg>
