<svg width="16" height="16" viewBox="0 0 16 16" fill="none" xmlns="http://www.w3.org/2000/svg">
<path d="M12.5813 9.95264C12.9231 9.8159 13.0894 9.42792 12.9526 9.08606C12.8159 8.74421 12.4279 8.57793 12.0861 8.71467L11.7388 8.85356C11.397 8.9903 11.2307 9.37829 11.3675 9.72014C11.5042 10.062 11.8922 10.2283 12.234 10.0915L12.5813 9.95264Z" fill="white"/>
<path d="M10.1507 10.9249C10.4926 10.7881 10.6588 10.4001 10.5221 10.0583C10.3853 9.71643 9.99736 9.55015 9.65551 9.6869L8.96106 9.96467C8.61921 10.1014 8.45293 10.4894 8.58967 10.8313C8.72642 11.1731 9.1144 11.3394 9.45625 11.2026L10.1507 10.9249Z" fill="white"/>
<path d="M7.37292 12.036C7.71477 11.8992 7.88105 11.5113 7.74431 11.1694C7.60757 10.8275 7.21959 10.6613 6.87773 10.798L6.18329 11.0758C5.84143 11.2125 5.67515 11.6005 5.8119 11.9424C5.94864 12.2842 6.33662 12.4505 6.67847 12.3138L7.37292 12.036Z" fill="white"/>
<path d="M4.59514 13.1471C4.937 13.0103 5.10327 12.6224 4.96653 12.2805C4.82979 11.9387 4.44181 11.7724 4.09995 11.9091L3.75273 12.048C3.41088 12.1847 3.2446 12.5727 3.38134 12.9146C3.51808 13.2564 3.90606 13.4227 4.24792 13.286L4.59514 13.1471Z" fill="white"/>
<path fill-rule="evenodd" clip-rule="evenodd" d="M2.66699 7.66699C2.66699 6.56242 3.56242 5.66699 4.66699 5.66699C5.77156 5.66699 6.66699 6.56242 6.66699 7.66699C6.66699 8.07643 6.49372 8.53909 6.26328 8.99999C6.02148 9.48357 5.66891 10.0562 5.21552 10.7126C5.09105 10.8928 4.886 11.0003 4.66699 11.0003C4.44798 11.0003 4.24294 10.8928 4.11846 10.7126C3.66507 10.0562 3.3125 9.48357 3.07071 8.99999C2.84026 8.53909 2.66699 8.07643 2.66699 7.66699ZM4.66699 7.00033C4.2988 7.00033 4.00033 7.2988 4.00033 7.66699C4.00033 7.74847 4.04928 7.97571 4.26328 8.40371C4.36777 8.61269 4.50188 8.8509 4.66699 9.11907C4.8321 8.8509 4.96622 8.61269 5.07071 8.40371C5.2847 7.97571 5.33366 7.74847 5.33366 7.66699C5.33366 7.2988 5.03518 7.00033 4.66699 7.00033Z" fill="white"/>
<path fill-rule="evenodd" clip-rule="evenodd" d="M11.3337 2.66699C10.2291 2.66699 9.33366 3.56242 9.33366 4.66699C9.33366 5.07643 9.50693 5.53909 9.73737 5.99999C9.97917 6.48357 10.3317 7.05617 10.7851 7.71255C10.9096 7.89275 11.1146 8.00033 11.3337 8.00033C11.5527 8.00033 11.7577 7.89275 11.8822 7.71255C12.3356 7.05617 12.6882 6.48357 12.9299 5.99999C13.1604 5.53909 13.3337 5.07643 13.3337 4.66699C13.3337 3.56242 12.4382 2.66699 11.3337 2.66699ZM10.667 4.66699C10.667 4.2988 10.9655 4.00033 11.3337 4.00033C11.7018 4.00033 12.0003 4.2988 12.0003 4.66699C12.0003 4.74847 11.9514 4.97571 11.7374 5.40371C11.6329 5.61269 11.4988 5.8509 11.3337 6.11907C11.1685 5.8509 11.0344 5.61269 10.9299 5.40371C10.7159 4.97571 10.667 4.74847 10.667 4.66699Z" fill="white"/>
<path fill-rule="evenodd" clip-rule="evenodd" d="M2.33366 0.666992C1.41318 0.666992 0.666992 1.41318 0.666992 2.33366V13.667C0.666992 14.5875 1.41318 15.3337 2.33366 15.3337H13.667C14.5875 15.3337 15.3337 14.5875 15.3337 13.667V2.33366C15.3337 1.41318 14.5875 0.666992 13.667 0.666992H2.33366ZM2.00033 2.33366C2.00033 2.14956 2.14956 2.00033 2.33366 2.00033H13.667C13.8511 2.00033 14.0003 2.14956 14.0003 2.33366V13.667C14.0003 13.8511 13.8511 14.0003 13.667 14.0003H2.33366C2.14956 14.0003 2.00033 13.8511 2.00033 13.667V2.33366Z" fill="white"/>
</svg>
