<svg width="45" height="45" viewBox="0 0 45 45" fill="none" xmlns="http://www.w3.org/2000/svg">
<path fill-rule="evenodd" clip-rule="evenodd" d="M0.958252 22.5C0.958252 10.6029 10.6028 0.958328 22.4999 0.958328C34.3971 0.958328 44.0416 10.6029 44.0416 22.5C44.0416 34.3971 34.3971 44.0417 22.4999 44.0417C10.6028 44.0417 0.958252 34.3971 0.958252 22.5ZM15.6458 16.625C16.7273 16.625 17.6041 17.5018 17.6041 18.5833V19.5625C17.6041 20.644 16.7273 21.5208 15.6458 21.5208C14.5642 21.5208 13.6874 20.644 13.6874 19.5625V18.5833C13.6874 17.5018 14.5642 16.625 15.6458 16.625ZM31.3124 18.5833C31.3124 17.5018 30.4356 16.625 29.3541 16.625C28.2725 16.625 27.3958 17.5018 27.3958 18.5833V19.5625C27.3958 20.644 28.2725 21.5208 29.3541 21.5208C30.4356 21.5208 31.3124 20.644 31.3124 19.5625V18.5833ZM15.6458 27.3958C14.967 27.3958 14.3367 27.7473 13.9799 28.3246C13.6231 28.902 13.5906 29.6229 13.8942 30.23L13.895 30.2317L13.896 30.2336L13.898 30.2375L13.9026 30.2466L13.9142 30.2691C13.9187 30.2778 13.9237 30.2874 13.9294 30.298C13.9347 30.3081 13.9406 30.3191 13.947 30.3309C13.9732 30.3792 14.0082 30.4419 14.0523 30.5167C14.1403 30.6661 14.2654 30.8655 14.4302 31.0981C14.7582 31.5611 15.2525 32.1688 15.9359 32.7762C17.319 34.0056 19.4786 35.2292 22.4999 35.2292C25.5212 35.2292 27.6808 34.0056 29.064 32.7762C29.7473 32.1688 30.2417 31.5611 30.5696 31.0981C30.7344 30.8655 30.8595 30.6661 30.9476 30.5167C30.9916 30.4419 31.0266 30.3792 31.0528 30.3309C31.0594 30.3187 31.0655 30.3074 31.071 30.297C31.0764 30.2868 31.0813 30.2775 31.0857 30.2691L31.0973 30.2466L31.1019 30.2375L31.1039 30.2336L31.1048 30.2317L31.1057 30.23C31.4092 29.6229 31.3768 28.902 31.0199 28.3246C30.6631 27.7473 30.0328 27.3958 29.3541 27.3958H15.6458Z" fill="#20CE88"/>
</svg>
