<svg width="22" height="20" viewBox="0 0 22 20" fill="none" xmlns="http://www.w3.org/2000/svg">
<path fill-rule="evenodd" clip-rule="evenodd" d="M0 1C0 0.447715 0.447715 0 1 0H21C21.5523 0 22 0.447715 22 1V16C22 16.5523 21.5523 17 21 17H10.7361L5.94721 19.3944C5.63723 19.5494 5.26909 19.5329 4.97427 19.3507C4.67945 19.1684 4.5 18.8466 4.5 18.5V17H1C0.447715 17 0 16.5523 0 16V1ZM7 7.75C7 7.19772 6.55228 6.75 6 6.75C5.44772 6.75 5 7.19772 5 7.75V9.25C5 9.80228 5.44772 10.25 6 10.25C6.55228 10.25 7 9.80228 7 9.25V7.75ZM11 6.75C11.5523 6.75 12 7.19772 12 7.75V9.25C12 9.80228 11.5523 10.25 11 10.25C10.4477 10.25 10 9.80228 10 9.25V7.75C10 7.19772 10.4477 6.75 11 6.75ZM17 7.75C17 7.19772 16.5523 6.75 16 6.75C15.4477 6.75 15 7.19772 15 7.75V9.25C15 9.80228 15.4477 10.25 16 10.25C16.5523 10.25 17 9.80228 17 9.25V7.75Z" fill="#20CE88"/>
</svg>
