<svg width="44" height="45" viewBox="0 0 44 45" fill="none" xmlns="http://www.w3.org/2000/svg">
<path fill-rule="evenodd" clip-rule="evenodd" d="M0 22.5C0 10.6029 9.84973 0.958328 22 0.958328C34.1503 0.958328 44 10.6029 44 22.5C44 34.3971 34.1503 44.0417 22 44.0417C9.84973 44.0417 0 34.3971 0 22.5ZM17 16.625C17 15.5434 16.1046 14.6667 15 14.6667C13.8954 14.6667 13 15.5434 13 16.625V17.6042C13 18.6857 13.8954 19.5625 15 19.5625C16.1046 19.5625 17 18.6857 17 17.6042V16.625ZM31 16.625C31 15.5434 30.1046 14.6667 29 14.6667C27.8954 14.6667 27 15.5434 27 16.625V17.6042C27 18.6857 27.8954 19.5625 29 19.5625C30.1046 19.5625 31 18.6857 31 17.6042V16.625ZM13 29.3542C13 28.2726 13.8954 27.3958 15 27.3958H29C30.1046 27.3958 31 28.2726 31 29.3542C31 30.4357 30.1046 31.3125 29 31.3125H15C13.8954 31.3125 13 30.4357 13 29.3542Z" fill="#FF6700"/>
</svg>
