<svg width="15" height="15" viewBox="0 0 15 15" fill="none" xmlns="http://www.w3.org/2000/svg">
<path fill-rule="evenodd" clip-rule="evenodd" d="M2.5 1.875C2.32741 1.875 2.1875 2.01491 2.1875 2.1875V12.8125C2.1875 12.9851 2.32741 13.125 2.5 13.125H10.3125V2.1875C10.3125 2.01491 10.1726 1.875 10 1.875H2.5ZM11.5625 6.25V2.1875C11.5625 1.32456 10.863 0.625 10 0.625H2.5C1.63706 0.625 0.9375 1.32456 0.9375 2.1875V12.8125C0.9375 13.6755 1.63706 14.375 2.5 14.375H12.5C13.363 14.375 14.0625 13.6755 14.0625 12.8125V7.5C14.0625 6.80963 13.5029 6.25 12.8125 6.25H11.5625ZM11.5625 7.5V13.125H12.5C12.6726 13.125 12.8125 12.9851 12.8125 12.8125V7.5H11.5625ZM2.8125 3.75C2.8125 3.40482 3.09232 3.125 3.4375 3.125H5.9375C6.28268 3.125 6.5625 3.40482 6.5625 3.75C6.5625 4.09518 6.28268 4.375 5.9375 4.375H3.4375C3.09232 4.375 2.8125 4.09518 2.8125 3.75ZM2.8125 5.9375C2.8125 5.59232 3.09232 5.3125 3.4375 5.3125H7.1875C7.53268 5.3125 7.8125 5.59232 7.8125 5.9375C7.8125 6.28268 7.53268 6.5625 7.1875 6.5625H3.4375C3.09232 6.5625 2.8125 6.28268 2.8125 5.9375Z" fill="white"/>
</svg>
