<svg width="95" height="143" viewBox="0 0 95 143" fill="none" xmlns="http://www.w3.org/2000/svg">
<path d="M57.432 28.2805H31.8815C29.125 28.2805 26.8827 30.5228 26.8827 33.2792V47.4882C26.8827 50.2446 29.125 52.4869 31.8815 52.4869H34.8982L34.8758 57.9625C34.8737 58.4467 35.1766 58.8788 35.6321 59.042C35.758 59.0868 35.8881 59.1092 36.0172 59.1092C36.3543 59.1092 36.6818 58.9599 36.9026 58.6889L41.9589 52.4869H57.433C60.1895 52.4869 62.4318 50.2446 62.4318 47.4882V33.2792C62.4307 30.5228 60.1884 28.2805 57.432 28.2805Z" fill="white"/>
<path d="M33.4758 142.253C32.7216 142.253 32.1626 142.181 32.0154 142.161C25.9723 141.379 24.3274 139.73 23.9669 139.244L23.8591 139.077L14.6606 122.541C14.5081 122.281 14.2105 121.637 14.4057 120.827C14.5177 120.361 14.8335 119.703 15.6986 119.208L15.8181 119.146L19.3767 117.506C22.6644 115.99 26.3009 113.889 30.1859 111.261L37.9678 120.742C35.3649 122.538 32.8549 124.124 30.3225 125.569L32.2341 129.006C32.5136 129.416 32.7856 129.561 32.8848 129.603L33.0256 129.61L33.0235 129.643L35.7596 130.447L35.8962 130.519C36.0413 130.596 39.4356 132.444 39.5338 137.471C39.5818 138.821 39.1199 139.975 38.1961 140.808C36.8605 142.017 34.8476 142.253 33.4758 142.253Z" fill="#20CE88"/>
<path d="M70.6922 139.477C69.7653 139.477 68.8287 139.192 68.0606 138.721C64.6929 136.652 59.0456 131.944 50.7976 124.327C45.1151 119.08 39.8667 113.854 39.1552 113.145C37.2266 111.404 27.5513 102.443 18.4957 89.9506C13.1343 82.5549 8.91429 75.2083 5.95089 68.1156C2.17997 59.0899 0.415591 50.3853 0.70681 42.244C1.0183 33.5234 3.1091 25.9357 6.92269 19.6931C10.156 14.4 14.5989 10.0968 20.1278 6.9051C30.0282 1.18952 40.5804 0.745758 43.579 0.745758C46.5786 0.745758 57.1351 1.18952 67.0419 6.90403C72.575 10.0957 77.0212 14.3979 80.2577 19.691C84.0745 25.9346 86.1674 33.5223 86.4789 42.244C86.9301 54.8848 82.4872 68.666 73.2727 83.2067C67.555 92.2281 60.9465 99.9363 56.4086 104.812L47.143 96.846C57.6002 85.7103 75.0296 63.8667 74.2722 42.6792C73.262 14.3925 48.5276 12.9599 43.58 12.9599C38.6368 12.9599 13.9258 14.3925 12.9146 42.6792C12.4964 54.3749 17.8471 68.2414 28.3865 82.7811C36.8457 94.4512 45.7423 102.643 47.4406 104.167L47.687 104.401C47.9078 104.621 53.0953 109.809 58.8163 115.105C65.0631 120.887 68.6089 123.718 70.5248 125.091L79.1461 114.702C80.1905 112.409 83.4163 108.67 88.9431 109.582C91.7454 110.043 93.4287 111.195 93.9461 113.004C94.9701 116.583 90.4984 120.805 89.454 121.73L73.5362 138.254C72.7702 139.115 71.7376 139.477 70.6922 139.477Z" fill="#20CE88"/>
</svg>
