<svg width="62" height="35" viewBox="0 0 62 35" fill="none" xmlns="http://www.w3.org/2000/svg">
<g clip-path="url(#clip0)">
<path d="M47.2005 0C47.6264 0.41133 48.2193 0.436749 48.7492 0.600819C56.0352 2.86544 60.432 7.57263 61.8839 14.7663C61.9952 15.3232 62.1137 15.894 61.7943 16.7467C61.2039 14.7825 60.1126 13.3128 59.36 11.6721C56.4369 5.30107 51.1908 1.80708 44.0427 1.2571C36.718 0.693252 30.9129 3.40618 27.1356 9.61541C26.8331 10.1122 26.6347 10.6645 26.3637 11.1798C26.1265 11.6282 26.1314 12.2082 25.5022 12.638C25.4611 11.8893 25.7539 11.3809 26.0055 10.8794C28.6213 5.66156 32.81 2.18837 38.6296 0.536115C39.0894 0.406708 39.5879 0.360491 39.946 0C42.3609 0 44.7807 0 47.2005 0Z" fill="white"/>
<path d="M5.92125 20.6404C6.90368 18.0245 7.81111 15.6097 8.71853 13.1949C8.8129 12.9407 8.89034 12.6796 9.00649 12.4346C9.15167 12.1319 9.20491 11.709 9.66951 11.7067C10.1389 11.7021 10.2043 12.1204 10.3277 12.43C11.1988 14.6253 12.0578 16.8229 12.9193 19.0205C13.0863 19.448 13.2484 19.8778 13.4154 20.3169C13.9477 20.1921 13.9042 19.7831 14.0155 19.4873C14.8914 17.1718 15.7577 14.8518 16.6216 12.5317C16.8031 12.0395 17.0112 11.6328 17.6573 11.5565C18.918 11.4063 19.2083 11.716 18.751 12.8483C17.2846 16.474 15.8158 20.0974 14.3325 23.7162C14.18 24.0882 14.134 24.6382 13.5751 24.652C13.0016 24.6659 12.9532 24.1136 12.8031 23.7416C11.9078 21.5139 11.0367 19.2793 10.1559 17.0471C10.0204 16.7027 9.87761 16.3607 9.64047 15.7853C8.65804 18.4058 7.78933 20.7906 6.86255 23.1546C6.64961 23.6954 6.67138 24.5943 5.91641 24.6128C5.14933 24.6336 5.14207 23.7277 4.90251 23.2008C3.30061 19.6768 1.74226 16.1297 0.164553 12.5895C0.0169454 12.2567 -0.166959 11.8638 0.287962 11.6998C0.936468 11.4641 1.65999 11.3739 2.1875 11.9493C2.44158 12.2266 2.55773 12.6264 2.70776 12.9823C3.75553 15.4664 4.79604 17.9575 5.92125 20.6404Z" fill="white"/>
<path d="M61.5427 19.6445C61.5378 24.2269 58.6631 28.1345 54.1211 29.7359C49.8091 31.2564 44.8679 30.0201 41.8165 26.6301C41.5358 26.3205 40.8946 25.9276 41.3422 25.5232C41.7221 25.1789 42.4408 25.2806 42.9151 25.6411C43.5128 26.094 44.0137 26.6694 44.6259 27.0969C47.8345 29.3338 52.12 29.4378 55.5488 27.3973C58.7333 25.5048 60.5505 21.6295 59.8948 18.1378C59.1688 14.2625 56.2239 11.2538 52.2555 10.5606C49.0275 9.99671 46.0874 10.6784 43.6725 12.9384C43.2974 13.2873 42.9538 13.6663 42.5811 14.0176C42.0924 14.4797 41.393 14.6207 40.9478 14.2232C40.5292 13.8466 41.1317 13.4029 41.4027 13.0678C44.4178 9.34967 49.4872 7.91464 54.0752 9.45597C58.5663 10.9626 61.5475 15.032 61.5427 19.6445Z" fill="white"/>
<path d="M36.3986 18.9628C37.2261 18.0292 38.044 17.0841 38.8909 16.1643C39.2079 15.82 39.5443 15.4549 40.05 15.3694C40.5921 15.277 41.3083 15.0228 41.6205 15.5196C41.8988 15.9633 41.2019 16.2568 40.8921 16.5664C40.0573 17.4006 39.1958 18.2141 38.315 19.0067C37.8214 19.4504 37.8287 19.827 38.3078 20.2661C39.3991 21.2667 40.1492 22.6347 41.7294 23.1107C42.102 23.224 42.1649 23.5336 42.0948 23.8687C42.0149 24.2407 41.8141 24.4972 41.3833 24.5411C40.4662 24.6382 39.7548 24.2777 39.1087 23.6838C38.0634 22.7248 36.9842 21.8028 35.9049 20.853C35.6726 21.5463 35.8541 22.4129 35.8178 23.2586C35.7888 23.9542 35.7815 24.555 34.7531 24.5619C33.7707 24.5666 33.6352 24.0582 33.6376 23.3118C33.6473 19.3833 33.6448 15.4572 33.64 11.5288C33.64 10.8378 33.761 10.3456 34.6829 10.3295C35.6605 10.3133 35.8178 10.8171 35.813 11.5658C35.8009 13.9066 35.8081 16.2452 35.8081 18.5861C36.0041 18.7132 36.2026 18.838 36.3986 18.9628Z" fill="white"/>
<path d="M22.0395 16.8599C21.5483 16.9454 20.9506 17.0263 20.365 17.1557C19.806 17.2782 19.5447 17.0286 19.3801 16.5641C19.2059 16.0696 19.3487 15.7299 19.8738 15.5774C21.6548 15.0551 23.4333 14.9142 25.1489 15.7807C26.1628 16.2937 26.642 17.1603 26.6734 18.2372C26.7049 19.2747 26.6879 20.3146 26.6928 21.3522C26.6952 21.9391 26.7533 22.5238 27.2033 22.9674C27.6244 23.3788 27.8156 23.834 27.409 24.2916C27.0049 24.7468 26.3322 24.6728 25.9814 24.3493C25.1683 23.6006 24.5077 23.8409 23.6487 24.2708C22.5598 24.8161 21.3474 24.9594 20.1327 24.5573C17.996 23.8502 17.4467 21.5555 19.0486 20.0188C20.2464 18.8703 21.8435 18.7571 23.3801 18.4729C23.7963 18.3966 24.515 18.6855 24.5174 17.976C24.5198 17.3637 23.9269 17.0956 23.3486 16.9801C22.9614 16.9015 22.5525 16.9038 22.0395 16.8599ZM21.783 23.0645C22.6928 23.0137 23.5083 22.7156 24.2222 22.1795C24.7884 21.7543 24.7352 21.1465 24.5948 20.5896C24.4375 19.968 23.8447 20.1344 23.3849 20.1413C22.6106 20.1552 21.8701 20.3354 21.1781 20.6659C20.5223 20.9801 20.0045 21.44 20.244 22.2072C20.457 22.8958 21.074 23.0945 21.783 23.0645Z" fill="white"/>
<path d="M46.6029 23.0807C47.5151 23.0807 48.425 23.0784 49.3372 23.0807C49.9059 23.083 50.3874 23.1731 50.3971 23.8779C50.4068 24.5804 49.9325 24.7006 49.3614 24.7029C47.791 24.7121 46.2181 24.7168 44.6477 24.7006C44.2194 24.696 43.7039 24.7491 43.5539 24.2038C43.4257 23.737 43.4716 23.2679 43.883 22.9282C44.5799 22.3458 45.301 21.7889 46.0052 21.2158C46.8037 20.5665 47.6216 19.9264 48.1007 19.009C48.7323 17.805 48.2072 16.9477 46.8158 16.8738C46.0802 16.8345 45.3688 16.9477 44.6815 17.1927C44.2242 17.3544 43.912 17.2574 43.7354 16.7906C43.5491 16.303 43.6628 15.961 44.1855 15.783C45.1776 15.4457 46.1963 15.1684 47.2562 15.2839C49.9591 15.5797 51.0408 18.0384 49.405 20.1552C48.6137 21.1812 47.5563 21.9622 46.6029 23.0807Z" fill="white"/>
<path d="M31.2226 16.6242C31.2226 18.0846 31.2178 19.5451 31.225 21.0055C31.2299 21.8051 31.1258 22.6254 31.8905 23.2401C32.2147 23.5012 32.0792 23.8848 31.9147 24.2037C31.7453 24.5296 31.4114 24.5527 31.0799 24.5388C30.2595 24.5065 29.7369 24.0674 29.4368 23.3765C29.1585 22.7294 29.0569 22.0431 29.0545 21.3452C29.0496 18.117 29.0521 14.8864 29.0521 11.6582C29.0521 10.9811 29.0351 10.3526 30.0781 10.3295C31.1549 10.304 31.2299 10.9049 31.225 11.6651C31.2154 13.3174 31.2226 14.9719 31.2226 16.6242Z" fill="white"/>
<path d="M56.3401 29.6065C53.7195 32.2016 50.5737 33.8908 46.8787 34.584C38.603 36.1392 31.15 33.2738 26.8888 26.7156C26.6613 26.3644 25.9426 25.886 26.6492 25.4816C27.23 25.1489 27.7551 25.544 28.135 26.1009C30.9032 30.1472 34.7023 32.8648 39.6798 33.8839C44.9404 34.9607 49.7631 33.937 54.0292 30.7527C54.7309 30.2304 55.469 29.8122 56.3401 29.6065Z" fill="white"/>
<path d="M55.7376 19.9865C55.7376 21.1003 55.7521 22.2141 55.7303 23.3256C55.7182 23.9056 55.9215 24.6636 54.9076 24.6728C53.8453 24.6821 53.9929 23.8964 53.9857 23.2655C53.9663 21.7311 53.9808 20.1944 53.9784 18.6577C53.976 17.2504 53.9736 17.2504 52.6959 17.8489C52.587 17.8998 52.483 17.9575 52.3741 18.0061C52.0232 18.1655 51.682 18.2718 51.4691 17.8189C51.2973 17.4515 51.1811 17.0887 51.5804 16.779C51.6747 16.7074 51.7715 16.6311 51.8804 16.5895C53.0008 16.1482 54.0873 14.9396 55.2923 15.5982C56.3038 16.1505 55.5948 17.5023 55.7279 18.489C55.7932 18.9812 55.7376 19.4873 55.7376 19.9865Z" fill="white"/>
</g>
<defs>
<clipPath id="clip0">
<rect width="62" height="35" fill="white"/>
</clipPath>
</defs>
</svg>
